<svg width="1920" height="76" viewBox="0 0 1920 76" fill="none" xmlns="http://www.w3.org/2000/svg">
<path d="M855.902 38.2759C855.92 36.3276 857.53 34.7586 859.548 34.7586C861.193 34.7586 862.556 35.8448 862.839 37.3103H861.636C861.406 36.4655 860.556 35.8621 859.548 35.8621C858.167 35.8621 857.052 36.9483 857.07 38.2759C857.052 39.6207 858.167 40.7069 859.548 40.6897C860.556 40.7069 861.317 40.1034 861.565 39.2759H862.768C862.467 40.7241 861.193 41.8103 859.548 41.8276C857.53 41.8103 855.92 40.2414 855.902 38.2759ZM853 38.2759C853 34.8103 855.902 32 859.441 32C863.016 32 865.883 34.8103 865.883 38.2759C865.918 41.7414 863.016 44.569 859.441 44.5862C855.902 44.569 852.982 41.7414 853 38.2759ZM854.133 38.2759C854.133 41.1207 856.522 43.4483 859.441 43.4483C862.379 43.4483 864.768 41.1379 864.75 38.2759C864.732 35.4138 862.379 33.1207 859.441 33.1034C856.522 33.1207 854.15 35.431 854.133 38.2759Z" fill="black"/>
<path d="M877.673 32.1724H878.911V40.9655C878.911 43.3448 877.496 44.5517 875.478 44.5517C873.514 44.5517 872.063 43.4138 872.045 41.6552H873.284C873.284 42.7414 874.222 43.4655 875.478 43.4828C876.788 43.4655 877.673 42.6897 877.673 40.9655V32.1724Z" fill="black"/>
<path d="M881.882 32.1724H883.333L887.792 42.6552H887.898L892.393 32.1724H893.809V44.3793H892.641V34.6552H892.535L888.394 44.3793H887.297L883.156 34.6552H883.05V44.3793H881.882V32.1724Z" fill="black"/>
<path d="M896.778 44.3793V32.1724H898.017V38.6552H898.123L904.14 32.1724H905.732L900.423 37.7931L905.732 44.3793H904.21L899.645 38.6207L898.017 40.4483V44.3793H896.778Z" fill="black"/>
<path d="M908.251 44.4828C907.756 44.4655 907.331 44.069 907.331 43.5517C907.331 43.069 907.756 42.6724 908.251 42.6552C908.764 42.6724 909.189 43.069 909.171 43.5517C909.189 44.069 908.764 44.4655 908.251 44.4828Z" fill="black"/>
<path d="M916.344 44.3793H915.034L919.6 32.1724H920.909L925.475 44.3793H924.165L922.856 40.7586H917.653L916.344 44.3793ZM918.042 39.6897H922.466L920.307 33.7241H920.201L918.042 39.6897Z" fill="black"/>
<path d="M928.235 32.1724V44.3793H927.067V32.1724H928.235Z" fill="black"/>
<path d="M931.95 32.1724V44.3793H930.782V32.1724H931.95Z" fill="black"/>
<path d="M938.996 44.3793V32.1724H943.101C945.791 32.1897 947.154 33.7069 947.171 35.8621C947.154 37.5 946.357 38.7586 944.782 39.2586L947.667 44.3793H946.251L943.526 39.4655C943.384 39.4828 943.243 39.4828 943.101 39.4828H940.234V44.3793H938.996ZM940.234 38.4138H943.066C945.012 38.3966 945.95 37.431 945.932 35.8621C945.95 34.2931 945.012 33.2586 943.03 33.2759H940.234V38.4138Z" fill="black"/>
<path d="M949.394 44.3793V35.2414H950.562V44.3793H949.394ZM949.146 32.8621C949.146 32.431 949.536 32.0862 949.996 32.069C950.473 32.0862 950.863 32.431 950.88 32.8621C950.863 33.3276 950.473 33.6724 949.996 33.6897C949.536 33.6724 949.146 33.3276 949.146 32.8621Z" fill="black"/>
<path d="M956.754 48C954.683 48 953.179 47.1379 952.967 45.5172H954.206C954.418 46.5 955.409 46.9828 956.754 47C958.47 46.9828 959.497 46.2241 959.514 44.5517V42.5172H959.408C959.037 43.3103 958.24 44.2759 956.542 44.2759C954.294 44.2759 952.666 42.5517 952.648 39.7241C952.666 36.931 954.241 35.1034 956.542 35.1034C958.293 35.1034 959.037 36.1552 959.408 36.931H959.514V35.2414H960.682V44.6207C960.682 46.9483 959.019 48 956.754 48ZM953.852 39.7586C953.852 41.8276 954.86 43.2414 956.683 43.2414C958.47 43.2414 959.514 41.931 959.514 39.7586C959.514 37.6552 958.506 36.1552 956.683 36.1379C954.843 36.1552 953.852 37.7414 953.852 39.7586Z" fill="black"/>
<path d="M964.404 38.6897V44.3793H963.236V32.1724H964.404V36.6897H964.51C964.953 35.7241 965.855 35.1207 967.271 35.1034C969.2 35.1207 970.491 36.2759 970.491 38.4828V44.3793H969.288V38.5517C969.306 37.069 968.403 36.1552 966.952 36.1724C965.483 36.1552 964.404 37.1207 964.404 38.6897Z" fill="black"/>
<path d="M976.786 35.2414V36.2069H974.839V41.931C974.822 43.0862 975.494 43.4138 976.22 43.4138C976.432 43.4138 976.786 43.3966 976.998 43.3793V44.4483C976.786 44.4828 976.503 44.5172 976.114 44.5172C974.875 44.5172 973.654 43.7414 973.636 42.2069V36.2069H972.256V35.2414H973.636V33.0345H974.839V35.2414H976.786Z" fill="black"/>
<path d="M983.974 37.5172C983.78 36.6552 983.072 36.1034 981.922 36.1034C980.665 36.1034 979.798 36.7759 979.798 37.6552C979.798 38.3621 980.329 38.8448 981.462 39.1379L982.913 39.4828C984.488 39.8448 985.284 40.6552 985.284 41.8966C985.284 43.4483 983.974 44.569 981.745 44.5862C979.763 44.569 978.542 43.6724 978.312 42.069H979.515C979.71 43.0517 980.471 43.5517 981.745 43.5517C983.16 43.5517 984.081 42.931 984.081 41.9655C984.081 41.2241 983.567 40.7241 982.453 40.4828L981.037 40.1379C979.444 39.7759 978.613 38.9138 978.595 37.7241C978.613 36.1897 979.957 35.1034 981.922 35.1034C983.762 35.1207 984.93 36.0862 985.142 37.5172H983.974Z" fill="black"/>
<path d="M991.841 44.3793V32.1724H995.947C998.636 32.1897 999.999 33.7069 1000.02 35.8621C999.999 37.5 999.203 38.7586 997.628 39.2586L1000.51 44.3793H999.097L996.371 39.4655C996.23 39.4828 996.088 39.4828 995.947 39.4828H993.08V44.3793H991.841ZM993.08 38.4138H995.911C997.858 38.3966 998.796 37.431 998.778 35.8621C998.796 34.2931 997.858 33.2586 995.876 33.2759H993.08V38.4138Z" fill="black"/>
<path d="M1005.96 44.5862C1003.3 44.569 1001.66 42.6379 1001.64 39.8621C1001.66 37.0862 1003.34 35.1034 1005.78 35.1034C1007.83 35.1034 1009.78 36.5172 1009.78 39.6207V40.1724H1002.84C1002.9 42.2241 1004.1 43.5345 1005.96 43.5517C1007.25 43.5345 1008.01 42.8966 1008.33 42.3103H1009.6C1009.18 43.569 1007.85 44.569 1005.96 44.5862ZM1002.84 39.1724H1008.58C1008.59 37.4483 1007.44 36.1379 1005.82 36.1379C1004.12 36.1379 1002.93 37.5172 1002.84 39.1724Z" fill="black"/>
<path d="M1017.07 37.5172C1016.87 36.6552 1016.17 36.1034 1015.01 36.1034C1013.76 36.1034 1012.89 36.7759 1012.89 37.6552C1012.89 38.3621 1013.42 38.8448 1014.55 39.1379L1016.01 39.4828C1017.58 39.8448 1018.38 40.6552 1018.38 41.8966C1018.38 43.4483 1017.07 44.569 1014.84 44.5862C1012.86 44.569 1011.64 43.6724 1011.4 42.069H1012.61C1012.8 43.0517 1013.56 43.5517 1014.84 43.5517C1016.25 43.5517 1017.17 42.931 1017.17 41.9655C1017.17 41.2241 1016.66 40.7241 1015.55 40.4828L1014.13 40.1379C1012.54 39.7759 1011.71 38.9138 1011.69 37.7241C1011.71 36.1897 1013.05 35.1034 1015.01 35.1034C1016.86 35.1207 1018.02 36.0862 1018.24 37.5172H1017.07Z" fill="black"/>
<path d="M1024.26 44.5862C1021.6 44.569 1019.96 42.6379 1019.94 39.8621C1019.96 37.0862 1021.64 35.1034 1024.08 35.1034C1026.13 35.1034 1028.08 36.5172 1028.08 39.6207V40.1724H1021.14C1021.2 42.2241 1022.4 43.5345 1024.26 43.5517C1025.55 43.5345 1026.31 42.8966 1026.63 42.3103H1027.9C1027.48 43.569 1026.15 44.569 1024.26 44.5862ZM1021.14 39.1724H1026.88C1026.9 37.4483 1025.75 36.1379 1024.12 36.1379C1022.42 36.1379 1021.23 37.5172 1021.14 39.1724Z" fill="black"/>
<path d="M1030.17 44.3793V35.2414H1031.3V36.6552H1031.37C1031.76 35.7241 1032.77 35.1034 1033.92 35.1034H1034.52V36.2759C1034.43 36.2586 1034.13 36.2069 1033.85 36.2069C1032.4 36.2069 1031.33 37.1724 1031.33 38.5172V44.3793H1030.17Z" fill="black"/>
<path d="M1043.73 35.2414L1040.3 44.3793H1039.02L1035.63 35.2414H1036.9L1039.63 42.8966H1039.7L1042.46 35.2414H1043.73Z" fill="black"/>
<path d="M1048.99 44.5862C1046.33 44.569 1044.69 42.6379 1044.67 39.8621C1044.69 37.0862 1046.37 35.1034 1048.81 35.1034C1050.86 35.1034 1052.81 36.5172 1052.81 39.6207V40.1724H1045.87C1045.93 42.2241 1047.13 43.5345 1048.99 43.5517C1050.28 43.5345 1051.04 42.8966 1051.36 42.3103H1052.63C1052.21 43.569 1050.88 44.569 1048.99 44.5862ZM1045.87 39.1724H1051.61C1051.62 37.4483 1050.47 36.1379 1048.85 36.1379C1047.15 36.1379 1045.96 37.5172 1045.87 39.1724Z" fill="black"/>
<path d="M1058.29 44.5862C1055.99 44.569 1054.42 42.6724 1054.4 39.8276C1054.42 37 1055.99 35.1034 1058.29 35.1034C1060.04 35.1034 1060.79 36.1552 1061.16 36.931H1061.23V32.1724H1062.43V44.3793H1061.27V42.7241H1061.16C1060.77 43.5172 1060.01 44.569 1058.29 44.5862ZM1055.6 39.8276C1055.6 41.9138 1056.61 43.5345 1058.43 43.5172C1060.24 43.5345 1061.27 41.9828 1061.27 39.8276C1061.27 37.6552 1060.26 36.1552 1058.43 36.1379C1056.59 36.1552 1055.6 37.7414 1055.6 39.8276Z" fill="black"/>
<path d="M1066.08 44.4828C1065.58 44.4655 1065.16 44.069 1065.16 43.5517C1065.16 43.069 1065.58 42.6724 1066.08 42.6552C1066.59 42.6724 1067.02 43.069 1067 43.5517C1067.02 44.069 1066.59 44.4655 1066.08 44.4828Z" fill="black"/>
</svg>
