<svg width="1920" height="72" viewBox="0 0 1920 72" fill="none" xmlns="http://www.w3.org/2000/svg">
<path d="M855.902 34.2759C855.92 32.3276 857.53 30.7586 859.548 30.7586C861.193 30.7586 862.556 31.8448 862.839 33.3103H861.636C861.406 32.4655 860.556 31.8621 859.548 31.8621C858.167 31.8621 857.052 32.9483 857.07 34.2759C857.052 35.6207 858.167 36.7069 859.548 36.6897C860.556 36.7069 861.317 36.1034 861.565 35.2759H862.768C862.467 36.7241 861.193 37.8103 859.548 37.8276C857.53 37.8103 855.92 36.2414 855.902 34.2759ZM853 34.2759C853 30.8103 855.902 28 859.441 28C863.016 28 865.883 30.8103 865.883 34.2759C865.918 37.7414 863.016 40.569 859.441 40.5862C855.902 40.569 852.982 37.7414 853 34.2759ZM854.133 34.2759C854.133 37.1207 856.522 39.4483 859.441 39.4483C862.379 39.4483 864.768 37.1379 864.75 34.2759C864.732 31.4138 862.379 29.1207 859.441 29.1034C856.522 29.1207 854.15 31.431 854.133 34.2759Z" fill="black"/>
<path d="M877.673 28.1724H878.911V36.9655C878.911 39.3448 877.496 40.5517 875.478 40.5517C873.514 40.5517 872.063 39.4138 872.045 37.6552H873.284C873.284 38.7414 874.222 39.4655 875.478 39.4828C876.788 39.4655 877.673 38.6897 877.673 36.9655V28.1724Z" fill="black"/>
<path d="M881.882 28.1724H883.333L887.792 38.6552H887.898L892.393 28.1724H893.809V40.3793H892.641V30.6552H892.535L888.394 40.3793H887.297L883.156 30.6552H883.05V40.3793H881.882V28.1724Z" fill="black"/>
<path d="M896.778 40.3793V28.1724H898.017V34.6552H898.123L904.14 28.1724H905.732L900.423 33.7931L905.732 40.3793H904.21L899.645 34.6207L898.017 36.4483V40.3793H896.778Z" fill="black"/>
<path d="M908.251 40.4828C907.756 40.4655 907.331 40.069 907.331 39.5517C907.331 39.069 907.756 38.6724 908.251 38.6552C908.764 38.6724 909.189 39.069 909.171 39.5517C909.189 40.069 908.764 40.4655 908.251 40.4828Z" fill="black"/>
<path d="M916.344 40.3793H915.034L919.6 28.1724H920.909L925.475 40.3793H924.165L922.856 36.7586H917.653L916.344 40.3793ZM918.042 35.6897H922.466L920.307 29.7241H920.201L918.042 35.6897Z" fill="black"/>
<path d="M928.235 28.1724V40.3793H927.067V28.1724H928.235Z" fill="black"/>
<path d="M931.95 28.1724V40.3793H930.782V28.1724H931.95Z" fill="black"/>
<path d="M938.996 40.3793V28.1724H943.101C945.791 28.1897 947.154 29.7069 947.171 31.8621C947.154 33.5 946.357 34.7586 944.782 35.2586L947.667 40.3793H946.251L943.526 35.4655C943.384 35.4828 943.243 35.4828 943.101 35.4828H940.234V40.3793H938.996ZM940.234 34.4138H943.066C945.012 34.3966 945.95 33.431 945.932 31.8621C945.95 30.2931 945.012 29.2586 943.03 29.2759H940.234V34.4138Z" fill="black"/>
<path d="M949.394 40.3793V31.2414H950.562V40.3793H949.394ZM949.146 28.8621C949.146 28.431 949.536 28.0862 949.996 28.069C950.473 28.0862 950.863 28.431 950.88 28.8621C950.863 29.3276 950.473 29.6724 949.996 29.6897C949.536 29.6724 949.146 29.3276 949.146 28.8621Z" fill="black"/>
<path d="M956.754 44C954.683 44 953.179 43.1379 952.967 41.5172H954.206C954.418 42.5 955.409 42.9828 956.754 43C958.47 42.9828 959.497 42.2241 959.514 40.5517V38.5172H959.408C959.037 39.3103 958.24 40.2759 956.542 40.2759C954.294 40.2759 952.666 38.5517 952.648 35.7241C952.666 32.931 954.241 31.1034 956.542 31.1034C958.293 31.1034 959.037 32.1552 959.408 32.931H959.514V31.2414H960.682V40.6207C960.682 42.9483 959.019 44 956.754 44ZM953.852 35.7586C953.852 37.8276 954.86 39.2414 956.683 39.2414C958.47 39.2414 959.514 37.931 959.514 35.7586C959.514 33.6552 958.506 32.1552 956.683 32.1379C954.843 32.1552 953.852 33.7414 953.852 35.7586Z" fill="black"/>
<path d="M964.404 34.6897V40.3793H963.236V28.1724H964.404V32.6897H964.51C964.953 31.7241 965.855 31.1207 967.271 31.1034C969.2 31.1207 970.491 32.2759 970.491 34.4828V40.3793H969.288V34.5517C969.306 33.069 968.403 32.1552 966.952 32.1724C965.483 32.1552 964.404 33.1207 964.404 34.6897Z" fill="black"/>
<path d="M976.786 31.2414V32.2069H974.839V37.931C974.822 39.0862 975.494 39.4138 976.22 39.4138C976.432 39.4138 976.786 39.3966 976.998 39.3793V40.4483C976.786 40.4828 976.503 40.5172 976.114 40.5172C974.875 40.5172 973.654 39.7414 973.636 38.2069V32.2069H972.256V31.2414H973.636V29.0345H974.839V31.2414H976.786Z" fill="black"/>
<path d="M983.974 33.5172C983.78 32.6552 983.072 32.1034 981.922 32.1034C980.665 32.1034 979.798 32.7759 979.798 33.6552C979.798 34.3621 980.329 34.8448 981.462 35.1379L982.913 35.4828C984.488 35.8448 985.284 36.6552 985.284 37.8966C985.284 39.4483 983.974 40.569 981.745 40.5862C979.763 40.569 978.542 39.6724 978.312 38.069H979.515C979.71 39.0517 980.471 39.5517 981.745 39.5517C983.16 39.5517 984.081 38.931 984.081 37.9655C984.081 37.2241 983.567 36.7241 982.453 36.4828L981.037 36.1379C979.444 35.7759 978.613 34.9138 978.595 33.7241C978.613 32.1897 979.957 31.1034 981.922 31.1034C983.762 31.1207 984.93 32.0862 985.142 33.5172H983.974Z" fill="black"/>
<path d="M991.841 40.3793V28.1724H995.947C998.636 28.1897 999.999 29.7069 1000.02 31.8621C999.999 33.5 999.203 34.7586 997.628 35.2586L1000.51 40.3793H999.097L996.371 35.4655C996.23 35.4828 996.088 35.4828 995.947 35.4828H993.08V40.3793H991.841ZM993.08 34.4138H995.911C997.858 34.3966 998.796 33.431 998.778 31.8621C998.796 30.2931 997.858 29.2586 995.876 29.2759H993.08V34.4138Z" fill="black"/>
<path d="M1005.96 40.5862C1003.3 40.569 1001.66 38.6379 1001.64 35.8621C1001.66 33.0862 1003.34 31.1034 1005.78 31.1034C1007.83 31.1034 1009.78 32.5172 1009.78 35.6207V36.1724H1002.84C1002.9 38.2241 1004.1 39.5345 1005.96 39.5517C1007.25 39.5345 1008.01 38.8966 1008.33 38.3103H1009.6C1009.18 39.569 1007.85 40.569 1005.96 40.5862ZM1002.84 35.1724H1008.58C1008.59 33.4483 1007.44 32.1379 1005.82 32.1379C1004.12 32.1379 1002.93 33.5172 1002.84 35.1724Z" fill="black"/>
<path d="M1017.07 33.5172C1016.87 32.6552 1016.17 32.1034 1015.01 32.1034C1013.76 32.1034 1012.89 32.7759 1012.89 33.6552C1012.89 34.3621 1013.42 34.8448 1014.55 35.1379L1016.01 35.4828C1017.58 35.8448 1018.38 36.6552 1018.38 37.8966C1018.38 39.4483 1017.07 40.569 1014.84 40.5862C1012.86 40.569 1011.64 39.6724 1011.4 38.069H1012.61C1012.8 39.0517 1013.56 39.5517 1014.84 39.5517C1016.25 39.5517 1017.17 38.931 1017.17 37.9655C1017.17 37.2241 1016.66 36.7241 1015.55 36.4828L1014.13 36.1379C1012.54 35.7759 1011.71 34.9138 1011.69 33.7241C1011.71 32.1897 1013.05 31.1034 1015.01 31.1034C1016.86 31.1207 1018.02 32.0862 1018.24 33.5172H1017.07Z" fill="black"/>
<path d="M1024.26 40.5862C1021.6 40.569 1019.96 38.6379 1019.94 35.8621C1019.96 33.0862 1021.64 31.1034 1024.08 31.1034C1026.13 31.1034 1028.08 32.5172 1028.08 35.6207V36.1724H1021.14C1021.2 38.2241 1022.4 39.5345 1024.26 39.5517C1025.55 39.5345 1026.31 38.8966 1026.63 38.3103H1027.9C1027.48 39.569 1026.15 40.569 1024.26 40.5862ZM1021.14 35.1724H1026.88C1026.9 33.4483 1025.75 32.1379 1024.12 32.1379C1022.42 32.1379 1021.23 33.5172 1021.14 35.1724Z" fill="black"/>
<path d="M1030.17 40.3793V31.2414H1031.3V32.6552H1031.37C1031.76 31.7241 1032.77 31.1034 1033.92 31.1034H1034.52V32.2759C1034.43 32.2586 1034.13 32.2069 1033.85 32.2069C1032.4 32.2069 1031.33 33.1724 1031.33 34.5172V40.3793H1030.17Z" fill="black"/>
<path d="M1043.73 31.2414L1040.3 40.3793H1039.02L1035.63 31.2414H1036.9L1039.63 38.8966H1039.7L1042.46 31.2414H1043.73Z" fill="black"/>
<path d="M1048.99 40.5862C1046.33 40.569 1044.69 38.6379 1044.67 35.8621C1044.69 33.0862 1046.37 31.1034 1048.81 31.1034C1050.86 31.1034 1052.81 32.5172 1052.81 35.6207V36.1724H1045.87C1045.93 38.2241 1047.13 39.5345 1048.99 39.5517C1050.28 39.5345 1051.04 38.8966 1051.36 38.3103H1052.63C1052.21 39.569 1050.88 40.569 1048.99 40.5862ZM1045.87 35.1724H1051.61C1051.62 33.4483 1050.47 32.1379 1048.85 32.1379C1047.15 32.1379 1045.96 33.5172 1045.87 35.1724Z" fill="black"/>
<path d="M1058.29 40.5862C1055.99 40.569 1054.42 38.6724 1054.4 35.8276C1054.42 33 1055.99 31.1034 1058.29 31.1034C1060.04 31.1034 1060.79 32.1552 1061.16 32.931H1061.23V28.1724H1062.43V40.3793H1061.27V38.7241H1061.16C1060.77 39.5172 1060.01 40.569 1058.29 40.5862ZM1055.6 35.8276C1055.6 37.9138 1056.61 39.5345 1058.43 39.5172C1060.24 39.5345 1061.27 37.9828 1061.27 35.8276C1061.27 33.6552 1060.26 32.1552 1058.43 32.1379C1056.59 32.1552 1055.6 33.7414 1055.6 35.8276Z" fill="black"/>
<path d="M1066.08 40.4828C1065.58 40.4655 1065.16 40.069 1065.16 39.5517C1065.16 39.069 1065.58 38.6724 1066.08 38.6552C1066.59 38.6724 1067.02 39.069 1067 39.5517C1067.02 40.069 1066.59 40.4655 1066.08 40.4828Z" fill="black"/>
</svg>
