<svg width="51" height="18" viewBox="0 0 51 18" fill="none" xmlns="http://www.w3.org/2000/svg">
<path d="M1.68 0.192126V17.1841H0V0.192126H1.68Z" fill="black"/>
<path d="M18.9668 0.192126V17.1841H17.3828L7.54275 3.21613H7.39875V17.1841H5.71875V0.192126H7.35075L17.1908 14.2081H17.3348V0.192126H18.9668Z" fill="black"/>
<path d="M22.9922 17.1841V0.192126H32.8802V1.72813H24.6722V7.96813H32.1122V9.40813H24.6722V17.1841H22.9922Z" fill="black"/>
<path d="M50.2973 8.68813C50.2733 14.0161 47.2013 17.4241 42.9053 17.4241C38.5853 17.4241 35.5372 14.0161 35.5132 8.68813C35.5372 3.38413 38.6092 -0.0238738 42.9053 0.000125937C47.2013 -0.0238738 50.2733 3.38413 50.2973 8.68813ZM37.1452 8.68813C37.1692 13.2001 39.6172 15.8401 42.9053 15.8401C46.1932 15.8401 48.6652 13.2241 48.6652 8.68813C48.6652 4.17613 46.1932 1.53613 42.9053 1.53613C39.6172 1.53613 37.1692 4.17613 37.1452 8.68813Z" fill="black"/>
</svg>
