<svg width="53" height="55" viewBox="0 0 53 55" fill="none" xmlns="http://www.w3.org/2000/svg">
<path fill-rule="evenodd" clip-rule="evenodd" d="M15.5546 0.337504C11.2407 0.539491 7.50165 1.63398 4.48246 4.75387C1.45272 7.89015 0.411125 11.7856 0.215997 16.2157C0.0947014 18.9808 -0.614572 39.8702 1.44217 45.3485C2.82916 49.0443 5.56087 51.8859 9.1549 53.3299C10.8319 54.0068 12.7463 54.465 15.5546 54.5988C39.0358 55.7015 47.74 55.1012 51.4105 45.3485C52.0618 43.6124 52.51 41.6275 52.634 38.7206C53.7072 14.2909 52.46 8.99562 48.3676 4.75387C45.1216 1.39377 41.3034 -0.893529 15.5546 0.337504ZM15.7708 49.6856C13.1998 49.5655 11.805 49.1209 10.8741 48.747C8.53262 47.8026 6.77385 45.985 5.86941 43.5693C4.30312 39.4067 4.8226 19.6364 4.96235 16.4373C5.09947 13.3037 5.71121 10.4399 7.84178 8.22896C10.4786 5.49937 13.8854 4.16163 37.0818 5.24801C40.1089 5.38994 42.875 6.02346 45.0109 8.22896C47.6477 10.9585 48.9556 14.521 47.8903 38.5003C47.7743 41.1617 47.3445 42.6057 46.9832 43.5693C44.5969 49.9155 39.1069 50.7965 15.7708 49.6856ZM37.3376 12.8964C37.3376 14.7034 38.7536 16.1728 40.5019 16.1728C42.2501 16.1728 43.6687 14.7034 43.6687 12.8964C43.6687 11.0895 42.2501 9.62141 40.5019 9.62141C38.7536 9.62141 37.3376 11.0895 37.3376 12.8964ZM12.8861 27.4668C12.8861 35.2079 18.9482 41.484 26.4263 41.484C33.9044 41.484 39.9666 35.2079 39.9666 27.4668C39.9666 19.7257 33.9044 13.4537 26.4263 13.4537C18.9482 13.4537 12.8861 19.7257 12.8861 27.4668ZM17.6377 27.4668C17.6377 22.4444 21.5719 18.3695 26.4263 18.3695C31.2808 18.3695 35.215 22.4444 35.215 27.4668C35.215 32.4919 31.2808 36.5681 26.4263 36.5681C21.5719 36.5681 17.6377 32.4919 17.6377 27.4668Z" fill="black"/>
</svg>
