<svg width="114" height="18" viewBox="0 0 114 18" fill="none" xmlns="http://www.w3.org/2000/svg">
<path d="M0 17.232V0.240001H5.568C9.216 0.264001 11.064 2.544 11.088 5.52C11.064 8.52 9.216 10.824 5.568 10.8H1.68V17.232H0ZM1.68 9.312H5.52C8.16 9.312 9.432 7.704 9.408 5.52C9.432 3.336 8.16 1.752 5.472 1.776H1.68V9.312Z" fill="black"/>
<path d="M14.25 17.232V0.240001H19.818C23.466 0.264001 25.314 2.376 25.338 5.376C25.314 7.656 24.234 9.408 22.098 10.104L26.01 17.232H24.09L20.394 10.392C20.202 10.416 20.01 10.416 19.818 10.416H15.93V17.232H14.25ZM15.93 8.928H19.77C22.41 8.904 23.682 7.56 23.658 5.376C23.682 3.192 22.41 1.752 19.722 1.776H15.93V8.928Z" fill="black"/>
<path d="M42.6566 8.736C42.6326 14.064 39.5606 17.472 35.2646 17.472C30.9446 17.472 27.8966 14.064 27.8726 8.736C27.8966 3.432 30.9686 0.0240011 35.2646 0.0480008C39.5606 0.0240011 42.6326 3.432 42.6566 8.736ZM29.5046 8.736C29.5286 13.248 31.9766 15.888 35.2646 15.888C38.5526 15.888 41.0246 13.272 41.0246 8.736C41.0246 4.224 38.5526 1.584 35.2646 1.584C31.9766 1.584 29.5286 4.224 29.5046 8.736Z" fill="black"/>
<path d="M52.3461 0.240001H54.0261V12.48C54.0261 15.792 52.1061 17.472 49.3701 17.472C46.7061 17.472 44.7381 15.888 44.7141 13.44H46.3941C46.3941 14.952 47.6661 15.96 49.3701 15.984C51.1461 15.96 52.3461 14.88 52.3461 12.48V0.240001Z" fill="black"/>
<path d="M58.0547 17.232V0.240001H67.9907V1.776H59.7347V8.016H67.4627V9.456H59.7347V15.744H68.1347V17.232H58.0547Z" fill="black"/>
<path d="M83.2432 5.568C82.7632 3.264 80.7473 1.584 78.1553 1.584C74.9873 1.584 72.4193 4.128 72.3952 8.736C72.4193 13.392 74.9873 15.888 78.1553 15.888C80.7473 15.888 82.7393 14.232 83.2432 11.904H84.9232C84.3473 15.072 81.7552 17.472 78.1553 17.472C73.8593 17.472 70.7873 14.064 70.7633 8.736C70.7873 3.432 73.8593 0.0240011 78.1553 0.0480008C81.7552 0.0240011 84.3473 2.376 84.9232 5.568H83.2432Z" fill="black"/>
<path d="M87.0936 1.776V0.240001H99.4776V1.776H94.1496V17.232H92.4696V1.776H87.0936Z" fill="black"/>
<path d="M111.708 4.512C111.54 2.664 109.932 1.512 107.724 1.536C105.396 1.512 103.788 2.808 103.788 4.608C103.788 6.36 105.54 7.176 107.148 7.632L108.924 8.112C111.036 8.712 113.556 9.84 113.58 12.72C113.556 15.432 111.348 17.52 107.628 17.52C104.124 17.52 101.916 15.672 101.724 12.96H103.452C103.596 14.928 105.396 16.008 107.628 15.984C110.124 16.008 111.948 14.664 111.948 12.672C111.948 10.968 110.484 10.2 108.444 9.6L106.38 9.024C103.74 8.232 102.18 6.864 102.156 4.656C102.18 1.896 104.604 0.0240011 107.772 0C110.964 0.0240011 113.22 1.92 113.34 4.512H111.708Z" fill="black"/>
</svg>
