<svg width="1019" height="381" viewBox="0 0 1019 381" fill="none" xmlns="http://www.w3.org/2000/svg">
<path d="M116.479 165.398V197.753H114.742V179.006H106.814V177.494H114.742V165.398H116.479ZM89.9757 189.664C94.0908 187.548 98.8477 181.5 98.8855 175.982V170.388H91.1083V168.8H108.475V170.388H100.622V175.982C100.622 181.122 105.304 186.943 109.532 188.909L108.399 190.345C104.851 188.531 101.188 184.297 99.7538 179.761C98.3947 184.637 94.5816 189.098 91.0328 191.025L89.9757 189.664Z" fill="black"/>
<path d="M148.73 175.831V177.342H126.908V166.608H128.645V175.831H148.73ZM122.68 183.844V182.332H152.203V183.844H122.68ZM126.757 196.846V187.548H128.494V195.334H148.956V196.846H126.757Z" fill="black"/>
<path d="M190.963 165.398V185.507H189.227V165.398H190.963ZM163.932 178.325C168.576 178.363 176.013 178.287 181.601 177.418L181.752 178.703C179.26 179.195 176.504 179.459 173.823 179.61V185.431H172.087V179.724C169.18 179.837 166.424 179.837 164.234 179.837L163.932 178.325ZM165.895 171.37C165.857 168.347 168.689 166.57 172.917 166.532C177.108 166.57 179.939 168.347 179.939 171.37C179.939 174.281 177.108 176.095 172.917 176.057C168.689 176.095 165.857 174.281 165.895 171.37ZM167.556 171.37C167.519 173.298 169.633 174.697 172.917 174.697C176.164 174.697 178.278 173.298 178.278 171.37C178.278 169.292 176.164 167.931 172.917 167.893C169.633 167.931 167.519 169.292 167.556 171.37ZM169.973 197.224V186.716H171.709V190.42H189.227V186.716H190.963V197.224H169.973ZM171.709 195.712H189.227V191.932H171.709V195.712ZM177.297 183.012V181.576H183.639V166.003H185.376V185.356H183.639V183.012H177.297Z" fill="black"/>
<path d="M226.235 183.239V184.826H212.417V191.479H210.68V184.826H196.712V183.239H226.235ZM200.714 196.922V188.304H202.45V195.334H222.912V196.922H200.714ZM200.789 179.913V166.684H222.308V168.195H202.526V172.429H221.402V173.941H202.526V178.401H222.459V179.913H200.789Z" fill="black"/>
<path d="M247.084 169.178V170.312C247.084 172.504 247.084 177.002 246.103 183.39L244.291 183.239C245.272 177.267 245.348 172.996 245.348 170.69H230.926V169.178H247.084ZM229.038 188.682C231.341 188.682 233.946 188.644 236.664 188.568V178.401H238.401V188.531C242.214 188.379 246.216 188.153 249.803 187.699L249.878 189.06C242.969 190.08 235.154 190.269 229.34 190.269L229.038 188.682ZM252.143 197.753V165.398H253.88V179.232H259.618V180.82H253.88V197.753H252.143Z" fill="black"/>
<path d="M279.88 166.759C284.675 166.759 288.072 169.594 288.11 173.789C288.072 177.947 284.675 180.744 279.88 180.744C275.123 180.744 271.687 177.947 271.65 173.789C271.687 169.594 275.123 166.759 279.88 166.759ZM273.462 173.789C273.424 176.889 276.18 179.27 279.88 179.232C283.617 179.27 286.373 176.889 286.373 173.789C286.373 170.652 283.617 168.271 279.88 168.271C276.18 168.271 273.424 170.652 273.462 173.789ZM276.633 185.507V183.995H297.171V191.101H278.445V195.712H298.53V197.224H276.709V189.664H295.434V185.507H276.633ZM295.434 182.256V165.398H297.171V182.256H295.434Z" fill="black"/>
<path d="M329.799 165.398V197.753H328.063V179.837H321.116V178.325H328.063V165.398H329.799ZM304.58 170.085V168.573H319.078V179.308H306.392V188.228H307.072C313.112 188.228 317.152 188.039 322.022 187.094L322.173 188.606C317.228 189.551 313.188 189.778 307.072 189.816H304.656V177.796H317.341V170.085H304.58Z" fill="black"/>
<path d="M351.555 170.463C351.555 176.511 359.257 181.387 363.787 182.256L362.881 183.768C358.728 182.672 352.65 179.081 350.687 173.903C348.724 179.081 342.683 182.634 338.492 183.768L337.586 182.256C342.117 181.349 349.743 176.587 349.743 170.463V167.893H351.555V170.463ZM336.001 193.066V191.554H365.599V193.066H336.001Z" fill="black"/>
<path d="M394.679 183.314V184.902H372.707V168.498H394.302V170.01H374.443V175.679H393.622V177.191H374.443V183.314H394.679ZM368.629 193.217V191.63H398.228V193.217H368.629Z" fill="black"/>
<path d="M430.781 180.744V182.256H401.258V180.744H430.781ZM404.882 186.943V185.507H427.006V191.857H406.77V195.712H428.138V197.148H405.033V190.42H425.269V186.943H404.882ZM405.033 168.044V166.608H426.855V172.731H406.921V176.284H427.459V177.72H405.184V171.37H425.118V168.044H405.033Z" fill="black"/>
<path d="M452.855 174.999C452.817 180.593 457.46 186.452 461.689 188.606L460.556 189.967C457.045 188.077 453.421 183.881 452.024 179.119C450.627 184.146 447.041 188.606 443.492 190.647L442.359 189.211C446.588 187.019 451.118 180.82 451.118 174.999V168.422H452.855V174.999ZM465.615 197.753V165.398H467.352V178.93H473.166V180.517H467.352V197.753H465.615Z" fill="black"/>
<path d="M500.358 165.398V173.865H505.568V175.377H500.358V184.978H498.546V165.398H500.358ZM476.8 169.027V167.439H491.297V175.604H478.612V181.198H479.367C484.879 181.198 489.296 181.009 494.77 180.064L494.997 181.651C489.372 182.521 484.992 182.748 479.367 182.71H476.951V174.092H489.636V169.027H476.8ZM479.669 191.932C479.631 188.304 483.595 186.225 490.165 186.187C496.658 186.225 500.584 188.304 500.584 191.932C500.584 195.523 496.658 197.602 490.165 197.602C483.595 197.602 479.631 195.523 479.669 191.932ZM481.33 191.932C481.33 194.503 484.804 196.166 490.165 196.166C495.45 196.166 498.923 194.503 498.923 191.932C498.923 189.324 495.45 187.661 490.165 187.699C484.804 187.661 481.33 189.324 481.33 191.932Z" fill="black"/>
<path d="M532.609 165.398V179.157H538.423V180.669H532.609V197.753H530.872V165.398H532.609ZM507.767 172.353V170.841H516.677V165.701H518.489V170.841H527.097V172.353H507.767ZM509.957 182.861C509.919 178.59 513.166 175.604 517.659 175.604C522.114 175.604 525.323 178.59 525.36 182.861C525.323 187.132 522.114 190.08 517.659 190.042C513.166 190.08 509.919 187.132 509.957 182.861ZM511.618 182.861C511.618 186.074 514.148 188.531 517.659 188.531C521.094 188.531 523.661 186.074 523.699 182.861C523.661 179.648 521.094 177.153 517.659 177.116C514.148 177.153 511.618 179.648 511.618 182.861Z" fill="black"/>
<path d="M565.993 169.027V172.278C565.955 176.209 565.955 180.555 564.86 186.867L563.048 186.565C564.218 180.555 564.218 176.133 564.256 172.278V170.539H543.794V169.027H565.993ZM540.547 192.688V191.176H552.779V179.308H554.516V191.176H569.995V192.688H540.547Z" fill="black"/>
<path d="M592.899 176.057C592.899 181.689 597.769 187.245 602.11 189.211L601.053 190.572C597.391 188.795 593.503 184.826 592.068 180.026C590.596 185.015 586.745 189.475 583.234 191.403L582.177 189.967C586.292 187.888 591.162 181.727 591.162 176.057V170.388H583.007V168.8H601.204V170.388H592.899V176.057ZM606.565 197.753V165.398H608.378V197.753H606.565Z" fill="black"/>
<path d="M630.813 167.969V181.425H616.24V167.969H630.813ZM617.901 179.988H629.152V169.405H617.901V179.988ZM618.958 191.781C618.958 188.153 622.885 185.998 629.454 185.96C635.947 185.998 639.874 188.153 639.874 191.781C639.874 195.485 635.947 197.602 629.454 197.602C622.885 197.602 618.958 195.485 618.958 191.781ZM620.695 191.781C620.657 194.465 624.093 196.128 629.454 196.166C634.739 196.128 638.212 194.465 638.212 191.781C638.212 189.173 634.739 187.51 629.454 187.472C624.093 187.51 620.657 189.173 620.695 191.781ZM637.835 184.751V165.398H639.647V174.016H644.781V175.528H639.647V184.751H637.835Z" fill="black"/>
<path d="M671.898 165.398V179.157H677.712V180.669H671.898V197.753H670.161V165.398H671.898ZM647.056 172.353V170.841H655.966V165.701H657.778V170.841H666.386V172.353H647.056ZM649.246 182.861C649.208 178.59 652.455 175.604 656.948 175.604C661.403 175.604 664.612 178.59 664.649 182.861C664.612 187.132 661.403 190.08 656.948 190.042C652.455 190.08 649.208 187.132 649.246 182.861ZM650.907 182.861C650.907 186.074 653.437 188.531 656.948 188.531C660.383 188.531 662.951 186.074 662.988 182.861C662.951 179.648 660.383 177.153 656.948 177.116C653.437 177.153 650.907 179.648 650.907 182.861Z" fill="black"/>
<path d="M705.886 175.831V177.342H684.064V166.608H685.801V175.831H705.886ZM679.836 183.844V182.332H709.359V183.844H679.836ZM683.913 196.846V187.548H685.65V195.334H706.112V196.846H683.913Z" fill="black"/>
<path d="M716.617 192.915L714.05 202.062H712.465L714.579 192.915H716.617Z" fill="black"/>
<path d="M740.727 171.748C740.727 176.322 744.465 180.139 748.957 181.727L748.051 183.088C744.351 181.765 741.18 178.93 739.896 175.339C738.651 179.421 735.291 182.521 731.44 183.995L730.534 182.559C735.026 180.933 739.028 176.813 739.066 171.824V169.481H731.213V167.893H748.504V169.481H740.727V171.748ZM734.762 191.857C734.762 188.228 738.688 186.149 745.257 186.111C751.789 186.149 755.677 188.228 755.677 191.857C755.677 195.485 751.789 197.602 745.257 197.602C738.688 197.602 734.762 195.485 734.762 191.857ZM736.499 191.857C736.461 194.465 739.896 196.09 745.257 196.09C750.543 196.09 754.016 194.465 754.016 191.857C754.016 189.286 750.543 187.623 745.257 187.623C739.896 187.623 736.461 189.286 736.499 191.857ZM753.639 185.129V165.398H755.451V174.167H760.585V175.679H755.451V185.129H753.639Z" fill="black"/>
<path d="M779.547 168.347V183.012H764.823V168.347H779.547ZM766.484 181.5H777.81V169.859H766.484V181.5ZM769.127 196.392V186.489H770.864V194.881H790.571V196.392H769.127ZM787.702 188.833V165.398H789.438V188.833H787.702Z" fill="black"/>
<path d="M822.067 165.398V197.753H820.33V165.398H822.067ZM796.319 189.816C805.267 185.507 810.288 178.514 810.779 170.463H797.603V168.951H812.553C812.553 177.947 807.683 186.225 797.301 191.252L796.319 189.816Z" fill="black"/>
<path d="M854.696 165.398V182.71H852.959V165.398H854.696ZM829.174 174.394C829.212 170.01 832.648 167.061 837.48 167.061C842.275 167.061 845.673 170.01 845.71 174.394C845.673 178.779 842.275 181.727 837.48 181.727C832.648 181.727 829.212 178.779 829.174 174.394ZM830.911 174.394C830.911 177.683 833.667 180.177 837.48 180.215C841.255 180.177 843.974 177.683 843.974 174.394C843.974 171.068 841.255 168.611 837.48 168.573C833.667 168.611 830.911 171.068 830.911 174.394ZM834.233 197.224V184.448H835.97V188.984H852.959V184.448H854.696V197.224H834.233ZM835.97 195.712H852.959V190.572H835.97V195.712Z" fill="black"/>
<path d="M887.173 165.398V197.753H885.437V165.398H887.173ZM863.238 189.135V168.649H864.974V187.548H865.729C870.826 187.51 875.885 187.132 881.51 185.96L881.737 187.548C875.998 188.682 871.015 189.135 865.729 189.135H863.238Z" fill="black"/>
<path d="M918.216 165.398V178.703H924.03V180.215H918.216V197.753H916.48V165.398H918.216ZM895.036 189.438V168.649H910.062V170.161H896.772V187.926H897.452C903.832 187.926 907.947 187.661 912.855 186.716L913.157 188.304C908.023 189.249 903.908 189.475 897.452 189.438H895.036Z" fill="black"/>
<path d="M929.099 195.107C928.268 195.145 927.551 194.427 927.589 193.595C927.551 192.688 928.268 192.008 929.099 192.008C929.967 192.008 930.685 192.688 930.685 193.595C930.685 194.427 929.967 195.145 929.099 195.107Z" fill="black"/>
<path d="M54.5366 227.558V229.069H25.089V227.558H38.9822V223.022H28.9398V212.439H50.7612V213.95H30.6765V221.434H51.0633V223.022H40.7189V227.558H54.5366ZM28.4113 234.361V232.849H50.8367V243.811H49.1001V234.361H28.4113Z" fill="black"/>
<path d="M68.213 218.184C68.1752 222.568 72.0261 226.235 76.5187 227.633L75.6126 229.069C71.9128 227.784 68.666 225.101 67.3824 221.586C66.0988 225.554 62.7388 228.503 58.9257 229.977L58.0196 228.54C62.5122 227.028 66.4763 223.06 66.4763 218.184V216.974H58.6237V215.462H66.4763V211.002H68.213V215.462H75.9902V216.974H68.213V218.184ZM62.097 237.687C62.097 234.134 65.9855 232.131 72.5924 232.093C79.1237 232.131 83.0123 234.134 83.0123 237.687C83.0123 241.278 79.1237 243.319 72.5924 243.281C65.9855 243.319 62.097 241.278 62.097 237.687ZM63.8336 237.687C63.7959 240.258 67.2314 241.845 72.5924 241.845C77.8778 241.845 81.3511 240.258 81.3511 237.687C81.3511 235.155 77.8778 233.567 72.5924 233.53C67.2314 233.567 63.7959 235.155 63.8336 237.687ZM80.9736 231.186V211.153H82.7858V220.074H87.9202V221.586H82.7858V231.186H80.9736Z" fill="black"/>
<path d="M100.993 217.503C100.955 221.964 104.806 226.008 109.298 227.633L108.317 228.994C104.655 227.595 101.483 224.685 100.162 221.094C98.8407 225.139 95.4429 228.314 91.6298 229.825L90.7237 228.465C95.1408 226.802 99.2182 222.455 99.2559 217.579V215.16H91.4033V213.648H108.694V215.16H100.993V217.503ZM95.4051 233.983V232.471H116.849V243.508H115.037V233.983H95.4051ZM107.562 221.586V220.074H115.037V211.153H116.849V230.581H115.037V221.586H107.562Z" fill="black"/>
<path d="M149.402 211.153V235.042H147.665V211.153H149.402ZM123.881 221.359C123.919 216.747 127.392 213.572 132.187 213.572C136.906 213.572 140.379 216.747 140.417 221.359C140.379 225.97 136.906 229.145 132.187 229.145C127.392 229.145 123.919 225.97 123.881 221.359ZM125.617 221.359C125.617 224.874 128.411 227.558 132.187 227.558C135.886 227.558 138.68 224.874 138.68 221.359C138.68 217.844 135.886 215.122 132.187 215.084C128.411 215.122 125.617 217.844 125.617 221.359ZM129.091 242.677V232.547H130.827V241.089H150.535V242.677H129.091Z" fill="black"/>
<path d="M179.932 216.218C179.932 222.266 187.634 227.142 192.164 228.011L191.258 229.523C187.106 228.427 181.027 224.836 179.064 219.658C177.101 224.836 171.06 228.389 166.87 229.523L165.964 228.011C170.494 227.104 178.12 222.342 178.12 216.218V213.648H179.932V216.218ZM164.378 238.821V237.309H193.977V238.821H164.378Z" fill="black"/>
<path d="M223.056 228.465V229.977H212.561V237.536H226.605V239.124H197.007V237.536H210.824V229.977H201.084V214.102H222.679V215.614H202.821V221.056H221.999V222.568H202.821V228.465H223.056Z" fill="black"/>
<path d="M256.063 211.153V243.508H254.326V211.153H256.063ZM231.523 215.84V214.328H246.398V225.214H233.411V233.908H234.241C239.451 233.945 244.434 233.719 250.702 232.698L250.853 234.286C244.51 235.23 239.564 235.495 234.241 235.495H231.674V223.702H244.586V215.84H231.523Z" fill="black"/>
<path d="M272.08 213.346C277.025 213.383 280.499 216.332 280.536 220.754C280.499 224.874 277.441 227.709 272.986 228.049V234.286C276.308 234.134 279.668 233.87 282.726 233.454L282.877 234.89C275.93 235.986 268.078 236.1 262.264 236.1L261.886 234.512C264.68 234.512 267.927 234.475 271.249 234.323V228.049C266.719 227.747 263.623 224.874 263.623 220.754C263.623 216.332 267.096 213.383 272.08 213.346ZM265.36 220.754C265.322 224.08 268.153 226.575 272.08 226.575C275.968 226.575 278.8 224.08 278.8 220.754C278.8 217.428 275.968 214.933 272.08 214.933C268.153 214.933 265.322 217.428 265.36 220.754ZM285.067 243.508V211.153H286.803V224.912H292.617V226.424H286.803V243.508H285.067Z" fill="black"/>
<path d="M330.17 211.153V229.901H328.358V219.544H320.505V218.033H328.358V211.153H330.17ZM303.894 227.18C308.424 225.516 312.313 221.321 312.35 216.143V212.439H313.936V216.143C313.936 220.716 318.013 224.798 322.393 226.348L321.411 227.784C317.825 226.386 314.578 223.513 313.181 219.885C311.897 224.005 308.613 227.104 304.8 228.616L303.894 227.18ZM309.406 242.979V231.715H330.17V242.979H309.406ZM311.142 241.467H328.433V233.152H311.142V241.467Z" fill="black"/>
<path d="M345.432 220.981C345.394 226.083 348.641 231.715 352.832 234.059L351.699 235.419C348.452 233.53 345.81 229.712 344.639 225.479C343.469 230.09 340.675 234.097 337.353 236.1L336.145 234.815C340.373 232.396 343.733 226.65 343.771 221.056V214.328H345.432V220.981ZM349.132 224.761V223.173H355.474V211.985H357.135V241.694H355.474V224.761H349.132ZM362.043 243.508V211.153H363.78V243.508H362.043Z" fill="black"/>
<path d="M393.992 211.153V222.341H399.127V223.853H393.992V235.495H392.18V211.153H393.992ZM369.075 217.05V215.462H377.834V211.229H379.571V215.462H388.405V217.05H369.075ZM371.114 225.139C371.038 221.472 374.096 219.204 378.74 219.167C383.271 219.204 386.329 221.472 386.366 225.139C386.329 228.691 383.271 230.959 378.74 230.959C374.096 230.959 371.038 228.691 371.114 225.139ZM372.7 225.139C372.7 227.671 375.116 229.485 378.74 229.447C382.289 229.485 384.667 227.671 384.705 225.139C384.667 222.493 382.289 220.678 378.74 220.678C375.116 220.678 372.7 222.493 372.7 225.139ZM374.21 242.677V233.454H375.946V241.089H395.654V242.677H374.21Z" fill="black"/>
<path d="M435.622 214.933V217.73C435.584 221.548 435.584 226.272 434.339 233.53L432.526 233.303C433.886 226.424 433.886 221.472 433.886 217.73V216.445H413.65V214.933H435.622ZM410.328 238.368V236.856H439.775V238.368H410.328Z" fill="black"/>
<path d="M469.383 211.153V230.355H467.647V211.153H469.383ZM444.617 214.706V213.194H459.19V221.359H446.354V226.877H447.185C452.734 226.915 457.227 226.726 462.814 225.819L463.041 227.406C457.302 228.276 452.81 228.465 447.185 228.465H444.693V219.847H457.453V214.706H444.617ZM448.846 242.979V232.244H469.383V242.979H448.846ZM450.582 241.467H467.722V233.756H450.582V241.467Z" fill="black"/>
<path d="M490.309 211.758C497.293 211.758 501.483 213.761 501.483 217.428C501.483 221.094 497.293 223.097 490.309 223.097C483.249 223.097 479.058 221.094 479.058 217.428C479.058 213.761 483.249 211.758 490.309 211.758ZM475.585 227.255V225.743H505.032V227.255H475.585ZM479.285 232.093V230.657H501.106V237.158H481.097V241.543H502.163V242.979H479.436V235.797H499.369V232.093H479.285ZM480.87 217.428C480.87 220.074 484.532 221.661 490.309 221.661C496.047 221.661 499.709 220.074 499.747 217.428C499.709 214.82 496.047 213.194 490.309 213.194C484.532 213.194 480.87 214.82 480.87 217.428Z" fill="black"/>
<path d="M546.436 228.54V230.128H516.988V228.54H530.806V224.609H521.065V212.136H542.585V213.648H522.802V217.503H541.679V219.015H522.802V223.097H542.736V224.609H532.542V228.54H546.436ZM520.688 238.292C520.688 234.928 524.652 233.152 531.712 233.152C538.772 233.152 542.736 234.928 542.736 238.292C542.736 241.618 538.772 243.357 531.712 243.357C524.652 243.357 520.688 241.618 520.688 238.292ZM522.424 238.292C522.424 240.598 525.973 241.921 531.712 241.921C537.488 241.921 540.999 240.598 540.999 238.292C540.999 235.986 537.488 234.588 531.712 234.588C525.973 234.588 522.424 235.986 522.424 238.292Z" fill="black"/>
<path d="M566.153 217.125V218.637H549.541V217.125H556.941V212.136H558.753V217.125H566.153ZM550.976 228.465C550.976 224.269 553.845 221.321 557.847 221.283C561.849 221.321 564.718 224.269 564.718 228.465C564.718 232.698 561.849 235.646 557.847 235.646C553.845 235.646 550.976 232.698 550.976 228.465ZM552.561 228.465C552.561 231.602 554.789 234.059 557.847 234.059C560.905 234.059 563.132 231.602 563.132 228.465C563.132 225.328 560.905 222.871 557.847 222.871C554.789 222.871 552.561 225.328 552.561 228.465ZM568.116 241.769V211.985H569.777V225.063H575.213V211.153H576.874V243.508H575.213V226.575H569.777V241.769H568.116Z" fill="black"/>
<path d="M601.213 220.754C601.175 226.348 605.819 232.207 610.047 234.361L608.915 235.722C605.404 233.832 601.78 229.636 600.383 224.874C598.986 229.901 595.399 234.361 591.85 236.402L590.718 234.966C594.946 232.774 599.477 226.575 599.477 220.754V214.177H601.213V220.754ZM613.974 243.508V211.153H615.711V224.685H621.524V226.272H615.711V243.508H613.974Z" fill="black"/>
<path d="M648.717 211.153V219.847H653.927V221.434H648.717V230.506H646.904V211.153H648.717ZM625.159 214.555V212.968H639.656V221.208H626.971V226.877H627.726C633.238 226.877 637.655 226.726 643.129 225.819L643.356 227.331C637.73 228.238 633.351 228.427 627.726 228.465H625.31V219.771H637.995V214.555H625.159ZM628.707 242.979V232.169H648.717V242.979H628.707ZM630.369 241.467H646.98V233.605H630.369V241.467Z" fill="black"/>
<path d="M685.725 225.29V226.877H656.277V225.29H685.725ZM659.977 231.867V230.355H681.798V237.234H661.789V241.467H682.855V242.979H660.128V235.797H680.062V231.867H659.977ZM660.43 222.115V212.514H681.798V214.026H662.167V220.603H682.176V222.115H660.43Z" fill="black"/>
<path d="M716.39 211.153V243.508H714.653V211.153H716.39ZM689.434 225.063C689.434 218.411 692.152 214.139 696.305 214.177C700.232 214.139 702.874 218.033 703.139 224.156H708.311V211.985H710.047V241.694H708.311V225.743H703.176C702.95 231.98 700.269 235.986 696.305 235.949C692.152 235.986 689.434 231.678 689.434 225.063ZM691.095 225.063C691.095 230.468 693.172 234.361 696.305 234.361C699.401 234.361 701.477 230.468 701.44 225.063C701.477 219.62 699.401 215.765 696.305 215.765C693.172 215.765 691.095 219.62 691.095 225.063Z" fill="black"/>
<path d="M748.943 211.153V243.508H747.282V211.153H748.943ZM721.836 234.966C729.236 230.619 733.162 223.929 733.653 216.974H722.969V215.462H735.352C735.352 218.675 734.71 221.888 733.351 224.912H740.562V212.061H742.223V241.694H740.562V226.424H732.634C730.595 230.203 727.424 233.643 722.969 236.327L721.836 234.966Z" fill="black"/>
<path d="M788.006 211.153V219.62H793.14V221.132H788.006V229.674H786.194V211.153H788.006ZM763.164 228.314C771.508 225.932 776.906 221.132 777.397 214.933H764.523V213.421H779.322C779.285 221.245 773.357 227.104 763.919 229.75L763.164 228.314ZM767.921 242.979V231.337H788.006V242.979H767.921ZM769.658 241.467H786.194V232.849H769.658V241.467Z" fill="black"/>
<path d="M825.014 227.558V229.069H795.566V227.558H809.459V223.173H799.417V212.665H821.238V214.177H801.154V221.586H821.54V223.173H811.12V227.558H825.014ZM799.266 237.612C799.266 234.021 803.419 231.904 810.29 231.867C817.161 231.904 821.314 234.021 821.314 237.612C821.314 241.316 817.161 243.357 810.29 243.357C803.419 243.357 799.266 241.316 799.266 237.612ZM801.003 237.612C801.04 240.258 804.665 241.921 810.29 241.921C815.915 241.921 819.577 240.258 819.577 237.612C819.577 235.004 815.915 233.378 810.29 233.378C804.665 233.378 801.04 235.004 801.003 237.612Z" fill="black"/>
<path d="M845.939 214.933V216.067C845.939 218.259 845.939 222.757 844.957 229.145L843.145 228.994C844.127 223.022 844.202 218.751 844.202 216.445H829.78V214.933H845.939ZM827.893 234.437C830.196 234.437 832.801 234.399 835.519 234.323V224.156H837.255V234.286C841.069 234.134 845.07 233.908 848.657 233.454L848.732 234.815C841.824 235.835 834.009 236.024 828.195 236.024L827.893 234.437ZM850.998 243.508V211.153H852.734V224.987H858.473V226.575H852.734V243.508H850.998Z" fill="black"/>
<path d="M899.046 225.365V226.877H869.598V225.365H899.046ZM871.41 221.812C876.356 221.283 883.378 218.637 883.416 214.328V214.026H872.316V212.514H896.403V214.026H885.303V214.328C885.266 218.6 892.325 221.283 897.309 221.812L896.629 223.249C891.948 222.644 886.209 220.527 884.359 216.861C882.51 220.565 876.733 222.644 872.014 223.249L871.41 221.812ZM873.298 232.093V230.581H895.119V237.309H875.11V241.543H896.176V242.979H873.449V235.873H893.383V232.093H873.298Z" fill="black"/>
<path d="M928.654 211.153V243.508H926.917V226.046H918.385V224.458H926.917V211.153H928.654ZM902.529 235.571C911.703 231.111 916.195 224.08 916.686 216.218H903.812V214.706H918.385C918.385 223.513 914.043 231.753 903.586 236.931L902.529 235.571Z" fill="black"/>
<path d="M949.579 211.834C956.488 211.872 960.754 214.064 960.754 217.881C960.754 221.586 956.488 223.778 949.579 223.778C942.632 223.778 938.328 221.586 938.328 217.881C938.328 214.064 942.632 211.872 949.579 211.834ZM934.855 228.314V226.802H964.303V228.314H950.409V232.622H960.603V242.979H938.63V232.622H948.748V228.314H934.855ZM940.141 217.881C940.141 220.603 943.878 222.304 949.579 222.266C955.204 222.304 958.979 220.603 959.017 217.881C958.979 215.084 955.204 213.346 949.579 213.346C943.878 213.346 940.141 215.084 940.141 217.881ZM940.367 241.467H958.942V234.059H940.367V241.467Z" fill="black"/>
<path d="M982.208 211.758C989.192 211.758 993.382 213.761 993.382 217.428C993.382 221.094 989.192 223.097 982.208 223.097C975.148 223.097 970.957 221.094 970.957 217.428C970.957 213.761 975.148 211.758 982.208 211.758ZM967.484 227.255V225.743H996.931V227.255H967.484ZM971.184 232.093V230.657H993.005V237.158H972.996V241.543H994.062V242.979H971.335V235.797H991.268V232.093H971.184ZM972.769 217.428C972.769 220.074 976.431 221.661 982.208 221.661C987.946 221.661 991.608 220.074 991.646 217.428C991.608 214.82 987.946 213.194 982.208 213.194C976.431 213.194 972.769 214.82 972.769 217.428Z" fill="black"/>
<path d="M186.614 263.334C186.577 268.059 190.541 272.405 194.996 274.069L193.938 275.505C190.352 273.993 187.105 270.931 185.784 267.076C184.425 271.309 181.102 274.635 177.327 276.261L176.421 274.749C180.876 272.972 184.915 268.399 184.953 263.183V258.874H186.614V263.334ZM182.235 288.432V278.377H183.972V286.844H203.528V288.432H182.235ZM192.957 266.585V264.997H200.885V256.908H202.697V281.326H200.885V266.585H192.957Z" fill="black"/>
<path d="M219.016 266.509C218.979 272.103 223.622 277.962 227.851 280.116L226.718 281.477C223.207 279.587 219.583 275.391 218.186 270.629C216.789 275.656 213.202 280.116 209.654 282.157L208.521 280.721C212.749 278.529 217.28 272.33 217.28 266.509V259.932H219.016V266.509ZM231.777 289.263V256.908H233.514V270.44H239.328V272.027H233.514V289.263H231.777Z" fill="black"/>
<path d="M266.142 256.908V270.667H271.956V272.179H266.142V289.263H264.406V256.908H266.142ZM241.301 263.863V262.351H250.21V257.211H252.022V262.351H260.63V263.863H241.301ZM243.49 274.371C243.452 270.1 246.699 267.114 251.192 267.114C255.647 267.114 258.856 270.1 258.894 274.371C258.856 278.642 255.647 281.59 251.192 281.552C246.699 281.59 243.452 278.642 243.49 274.371ZM245.151 274.371C245.151 277.584 247.681 280.041 251.192 280.041C254.627 280.041 257.195 277.584 257.232 274.371C257.195 271.158 254.627 268.663 251.192 268.626C247.681 268.663 245.151 271.158 245.151 274.371Z" fill="black"/>
<path d="M300.13 267.341V268.852H278.309V258.118H280.045V267.341H300.13ZM274.08 275.354V273.842H303.603V275.354H274.08ZM278.158 288.356V279.058H279.894V286.844H300.356V288.356H278.158Z" fill="black"/>
<path d="M325.828 263.258C325.828 267.87 329.565 271.801 334.058 273.388L333.152 274.824C329.414 273.426 326.243 270.516 324.997 266.849C323.714 270.931 320.391 274.031 316.616 275.505L315.634 274.069C320.127 272.405 324.129 268.285 324.167 263.258V260.915H316.314V259.403H333.605V260.915H325.828V263.258ZM319.787 279.814V278.302H340.552V289.263H338.739V279.814H319.787ZM338.739 276.336V256.908H340.552V265.904H345.686V267.416H340.552V276.336H338.739Z" fill="black"/>
<path d="M372.803 256.908V270.516H378.466V272.103H372.803V289.188H371.066V256.908H372.803ZM348.716 281.25C357.55 276.903 362.383 269.873 362.874 261.973H350V260.461H364.648C364.61 269.306 360.004 277.622 349.698 282.686L348.716 281.25Z" fill="black"/>
<path d="M405.431 256.908V270.516H411.094V272.103H405.431V289.188H403.695V256.908H405.431ZM381.345 281.25C390.179 276.903 395.011 269.873 395.502 261.973H382.628V260.461H397.277C397.239 269.306 392.633 277.622 382.326 282.686L381.345 281.25Z" fill="black"/>
<path d="M441.398 271.423V272.935H433.847V279.965C437.321 279.814 440.832 279.549 444.116 279.133L444.267 280.494C437.056 281.59 428.939 281.779 422.672 281.779L422.37 280.192C425.353 280.192 428.675 280.154 432.111 280.041V272.935H425.013V260.083H441.323V261.595H426.75V271.423H441.398ZM446.457 289.263V256.908H448.269V289.263H446.457Z" fill="black"/>
<path d="M481.2 256.908V289.263H479.463V256.908H481.2ZM455.452 281.326C464.4 277.017 469.421 270.024 469.912 261.973H456.736V260.461H471.686C471.686 269.457 466.816 277.735 456.434 282.762L455.452 281.326Z" fill="black"/>
<path d="M506.898 258.572C511.655 258.572 515.052 261.18 515.052 265.073C515.052 268.928 511.655 271.536 506.898 271.498C502.141 271.536 498.781 268.928 498.818 265.073C498.781 261.18 502.141 258.572 506.898 258.572ZM496.025 274.749C502.33 274.787 510.749 274.673 518.073 273.615L518.224 274.976C514.864 275.58 511.353 275.921 507.955 276.11V288.205H506.218V276.223C502.669 276.374 499.272 276.412 496.327 276.412L496.025 274.749ZM500.48 265.073C500.48 267.908 503.16 270.024 506.898 269.986C510.673 270.024 513.354 267.908 513.391 265.073C513.354 262.238 510.673 260.083 506.898 260.083C503.16 260.083 500.48 262.238 500.48 265.073ZM520.715 289.263V256.908H522.452V289.263H520.715Z" fill="black"/>
<path d="M545.34 262.88V264.392H528.729V262.88H536.128V257.891H537.941V262.88H545.34ZM530.163 274.22C530.163 270.024 533.033 267.076 537.035 267.038C541.036 267.076 543.906 270.024 543.906 274.22C543.906 278.453 541.036 281.401 537.035 281.401C533.033 281.401 530.163 278.453 530.163 274.22ZM531.749 274.22C531.749 277.357 533.977 279.814 537.035 279.814C540.093 279.814 542.32 277.357 542.32 274.22C542.32 271.083 540.093 268.626 537.035 268.626C533.977 268.626 531.749 271.083 531.749 274.22ZM547.303 287.524V257.74H548.965V270.818H554.401V256.908H556.062V289.263H554.401V272.33H548.965V287.524H547.303Z" fill="black"/>
<path d="M596.257 272.103V273.691H585.762V283.14H599.806V284.652H570.208V283.14H584.025V273.691H574.058V259.857H575.871V272.103H596.257Z" fill="black"/>
<path d="M606.536 273.388C613.181 273.35 616.39 273.275 620.429 272.557L620.58 274.069C616.465 274.749 613.218 274.862 606.536 274.9H604.346V265.904H616.352V260.461H604.271V258.949H618.013V267.341H606.083V273.388H606.536ZM607.895 280.192V278.68H629.339V289.263H627.527V280.192H607.895ZM620.429 269.986V268.474H627.527V263.41H620.429V261.973H627.527V256.908H629.339V276.714H627.527V269.986H620.429Z" fill="black"/>
<path d="M660.155 256.908V270.667H665.969V272.179H660.155V289.263H658.419V256.908H660.155ZM635.314 263.863V262.351H644.224V257.211H646.036V262.351H654.643V263.863H635.314ZM637.503 274.371C637.466 270.1 640.713 267.114 645.205 267.114C649.66 267.114 652.869 270.1 652.907 274.371C652.869 278.642 649.66 281.59 645.205 281.552C640.713 281.59 637.466 278.642 637.503 274.371ZM639.165 274.371C639.165 277.584 641.694 280.041 645.205 280.041C648.641 280.041 651.208 277.584 651.246 274.371C651.208 271.158 648.641 268.663 645.205 268.626C641.694 268.663 639.165 271.158 639.165 274.371Z" fill="black"/>
<path d="M693.539 260.537V263.788C693.501 267.719 693.501 272.065 692.406 278.377L690.594 278.075C691.765 272.065 691.765 267.643 691.802 263.788V262.049H671.34V260.537H693.539ZM668.093 284.198V282.686H680.325V270.818H682.062V282.686H697.541V284.198H668.093Z" fill="black"/>
<path d="M719.917 279.209C719.879 282.233 721.766 285.559 725.127 287.222C728.411 285.37 730.374 281.741 730.412 279.209V276.941H732.073V279.209C732.073 282.497 734.905 285.975 738.944 287.449L738.038 288.81C734.754 287.562 732.262 285.105 731.205 282.271C730.261 284.954 728.222 287.676 725.202 289.036C721.993 287.751 719.879 285.219 718.973 282.422C717.84 285.068 715.424 287.524 712.29 288.81L711.309 287.449C715.311 285.899 718.218 282.271 718.255 279.209V276.941H719.917V279.209ZM710.403 266.358C710.44 261.935 713.876 258.949 718.708 258.949C723.503 258.949 726.901 261.935 726.939 266.358C726.901 270.78 723.503 273.728 718.708 273.766C713.876 273.728 710.44 270.78 710.403 266.358ZM712.139 266.358C712.139 269.76 714.895 272.254 718.708 272.254C722.484 272.254 725.202 269.76 725.202 266.358C725.202 263.032 722.484 260.499 718.708 260.461C714.895 260.499 712.139 263.032 712.139 266.358ZM734.187 275.505V256.908H735.924V275.505H734.187Z" fill="black"/>
<path d="M747.864 276.261V280.721H765.834V276.261H767.646V288.734H746.052V276.261H747.864ZM742.125 273.615V272.027H771.573V273.615H742.125ZM744.013 267.794C748.77 267.038 755.943 263.712 755.943 259.101V257.286H757.755V259.101C757.755 263.561 765.041 267.076 769.761 267.794L769.006 269.155C764.589 268.437 758.812 265.791 756.887 261.822C754.961 265.829 749.147 268.437 744.692 269.155L744.013 267.794ZM747.864 287.222H765.834V282.233H747.864V287.222Z" fill="black"/>
<path d="M801.03 256.908V289.263H799.293V256.908H801.03ZM777.095 280.645V260.159H778.831V279.058H779.586C784.683 279.02 789.742 278.642 795.367 277.47L795.594 279.058C789.855 280.192 784.872 280.645 779.586 280.645H777.095Z" fill="black"/>
<path d="M832.073 256.908V270.213H837.887V271.725H832.073V289.263H830.336V256.908H832.073ZM808.893 280.948V260.159H823.918V261.671H810.629V279.436H811.309C817.689 279.436 821.804 279.171 826.712 278.226L827.014 279.814C821.88 280.759 817.765 280.986 811.309 280.948H808.893Z" fill="black"/>
<path d="M842.956 286.617C842.125 286.655 841.408 285.937 841.446 285.105C841.408 284.198 842.125 283.518 842.956 283.518C843.824 283.518 844.541 284.198 844.541 285.105C844.541 285.937 843.824 286.655 842.956 286.617Z" fill="black"/>
<path d="M29.5986 316.271V317.707H0V316.271H10.0046C11.1372 311.508 11.3637 307.993 11.4015 305.99H2.79374V304.402H13.1381V304.856C13.1004 306.368 13.1004 310.488 11.8545 316.271H22.8407C23.8601 311.47 23.9733 308.031 24.0111 305.99H15.6299V304.402H25.7478V305.309C25.71 307.161 25.71 310.941 24.5396 316.271H29.5986ZM3.69982 334.111V322.545H5.43648V332.599C6.94661 332.561 10.0046 332.41 13.2137 331.616L13.5157 333.128C9.77811 334.035 6.72009 334.111 5.13445 334.111H3.69982ZM12.7606 324.435V322.923H19.1787V319.748H20.9153V322.923H27.1824V324.435H12.7606ZM14.4973 330.482C14.4973 327.799 16.8002 326.136 20.0848 326.098C23.3315 326.136 25.5967 327.799 25.5967 330.482C25.5967 333.242 23.3315 334.867 20.0848 334.867C16.8002 334.867 14.4973 333.242 14.4973 330.482ZM16.0829 330.482C16.0829 332.297 17.6308 333.506 20.0848 333.506C22.4632 333.506 24.0111 332.297 24.0111 330.482C24.0111 328.706 22.4632 327.534 20.0848 327.534C17.6308 327.534 16.0829 328.706 16.0829 330.482Z" fill="black"/>
<path d="M59.0559 302.663V321.26H57.3192V302.663H59.0559ZM33.5347 311.962C33.5724 307.501 37.008 304.516 41.8404 304.478C46.6351 304.516 50.0329 307.501 50.0706 311.962C50.0329 316.384 46.6351 319.37 41.8404 319.37C37.008 319.37 33.5724 316.384 33.5347 311.962ZM35.2713 311.962C35.2713 315.326 38.0273 317.82 41.8404 317.782C45.6157 317.82 48.334 315.326 48.334 311.962C48.334 308.598 45.6157 306.065 41.8404 306.065C38.0273 306.065 35.2713 308.598 35.2713 311.962ZM38.5181 334.489V323.225H59.0559V334.489H38.5181ZM40.2548 332.977H57.3948V324.662H40.2548V332.977Z" fill="black"/>
<path d="M70.8447 321.638V326.249H78.3198V321.638H79.9055V334.489H69.108V321.638H70.8447ZM65.8612 311.584C65.8612 307.161 69.2213 304.251 74.0914 304.175C78.5463 304.251 81.7931 306.783 82.2462 310.677H89.9478V302.663H91.76V319.824H89.9478V312.264H82.2839C81.9064 316.233 78.6218 318.841 74.0914 318.841C69.2213 318.841 65.8612 315.93 65.8612 311.584ZM67.5979 311.584C67.5601 314.834 70.2406 317.367 74.0914 317.329C77.9045 317.367 80.6228 314.834 80.585 311.584C80.6228 308.22 77.9045 305.763 74.0914 305.763C70.2406 305.763 67.5601 308.22 67.5979 311.584ZM70.8447 332.977H78.3198V327.685H70.8447V332.977ZM80.887 333.355C84.8134 331.692 87.1541 327.837 87.1541 324.359V321.487H88.8907V324.359C88.853 327.912 91.1937 331.73 95.1578 333.355L94.1762 334.716C91.0804 333.355 88.9663 330.747 88.0224 327.837C87.0408 330.709 84.8889 333.317 81.8686 334.716L80.887 333.355Z" fill="black"/>
<path d="M123.936 313.096V314.607H102.114V303.873H103.851V313.096H123.936ZM97.8858 321.109V319.597H127.409V321.109H97.8858ZM101.963 334.111V324.813H103.7V332.599H124.162V334.111H101.963Z" fill="black"/>
<path d="M165.792 302.663V326.703H163.98V317.253H154.994C153.56 319.332 151.068 320.617 148.123 320.579C143.329 320.617 139.893 317.405 139.893 312.718C139.893 308.068 143.329 304.818 148.123 304.856C151.03 304.818 153.484 306.065 154.919 308.106H163.98V302.663H165.792ZM141.63 312.718C141.592 316.308 144.348 319.068 148.123 319.068C151.823 319.068 154.655 316.308 154.617 312.718C154.655 309.165 151.823 306.443 148.123 306.443C144.348 306.443 141.592 309.165 141.63 312.718ZM145.481 334.187V324.132H147.217V332.599H166.773V334.187H145.481ZM155.749 309.618C156.127 310.563 156.354 311.584 156.354 312.718C156.354 313.814 156.165 314.834 155.787 315.741H163.98V309.618H155.749Z" fill="black"/>
<path d="M177.656 322.016V326.476H195.627V322.016H197.439V334.489H175.844V322.016H177.656ZM171.918 319.37V317.782H201.365V319.37H171.918ZM173.805 313.549C178.562 312.793 185.735 309.467 185.735 304.856V303.041H187.547V304.856C187.547 309.316 194.834 312.831 199.553 313.549L198.798 314.91C194.381 314.192 188.605 311.546 186.679 307.577C184.754 311.584 178.94 314.192 174.485 314.91L173.805 313.549ZM177.656 332.977H195.627V327.988H177.656V332.977Z" fill="black"/>
<path d="M222.29 306.443V307.577C222.29 309.769 222.29 314.267 221.309 320.655L219.497 320.504C220.478 314.532 220.554 310.261 220.554 307.955H206.132V306.443H222.29ZM204.244 325.947C206.547 325.947 209.152 325.909 211.87 325.833V315.666H213.607V325.796C217.42 325.644 221.422 325.418 225.008 324.964L225.084 326.325C218.175 327.345 210.36 327.534 204.546 327.534L204.244 325.947ZM227.349 335.018V302.663H229.086V316.497H234.824V318.085H229.086V335.018H227.349Z" fill="black"/>
<path d="M270.64 302.663V315.968H276.454V317.48H270.64V335.018H268.904V302.663H270.64ZM247.46 326.703V305.914H262.485V307.426H249.196V325.191H249.876C256.256 325.191 260.371 324.926 265.279 323.981L265.581 325.569C260.447 326.514 256.332 326.741 249.876 326.703H247.46Z" fill="black"/>
<path d="M308.781 308.106V309.618H303.646V314.834H308.781V316.422H303.646V322.016H301.834V302.663H303.646V308.106H308.781ZM279.484 312.188C279.446 307.69 282.882 304.704 287.714 304.704C292.547 304.704 295.945 307.69 295.945 312.188C295.945 316.611 292.547 319.597 287.714 319.597C282.882 319.597 279.446 316.611 279.484 312.188ZM281.221 312.188C281.183 315.552 283.939 318.085 287.714 318.085C291.49 318.085 294.246 315.552 294.283 312.188C294.246 308.749 291.49 306.216 287.714 306.216C283.939 306.216 281.183 308.749 281.221 312.188ZM282.957 329.046C282.957 325.342 286.884 323.225 293.453 323.225C299.946 323.225 303.873 325.342 303.873 329.046C303.873 332.713 299.946 334.867 293.453 334.867C286.884 334.867 282.957 332.713 282.957 329.046ZM284.694 329.046C284.656 331.692 288.092 333.355 293.453 333.355C298.738 333.355 302.212 331.692 302.212 329.046C302.212 326.4 298.738 324.737 293.453 324.737C288.092 324.737 284.656 326.4 284.694 329.046Z" fill="black"/>
<path d="M336.275 302.663V313.852H341.409V315.363H336.275V327.005H334.463V302.663H336.275ZM311.358 308.56V306.972H320.116V302.739H321.853V306.972H330.687V308.56H311.358ZM313.396 316.649C313.321 312.982 316.379 310.714 321.023 310.677C325.553 310.714 328.611 312.982 328.649 316.649C328.611 320.202 325.553 322.469 321.023 322.469C316.379 322.469 313.321 320.202 313.396 316.649ZM314.982 316.649C314.982 319.181 317.398 320.995 321.023 320.957C324.571 320.995 326.95 319.181 326.988 316.649C326.95 314.003 324.571 312.188 321.023 312.188C317.398 312.188 314.982 314.003 314.982 316.649ZM316.492 334.187V324.964H318.229V332.599H337.936V334.187H316.492Z" fill="black"/>
<path d="M363.407 312.264C363.37 318.085 368.24 324.019 372.544 326.098L371.411 327.459C367.862 325.644 364.049 321.449 362.577 316.535C361.104 321.638 357.329 326.06 353.818 327.988L352.61 326.552C356.876 324.397 361.671 318.274 361.671 312.264V305.687H363.407V312.264ZM377.225 335.018V302.663H379.037V335.018H377.225Z" fill="black"/>
<path d="M411.213 318.236V319.748H400.793V329.046H414.837V330.634H385.239V329.046H399.056V319.748H389.24V305.536H410.835V307.048H390.977V318.236H411.213Z" fill="black"/>
<path d="M447.39 318.009V319.521H417.867V318.009H447.39ZM421.491 324.208V322.772H443.615V329.122H423.379V332.977H444.747V334.413H421.642V327.685H441.878V324.208H421.491ZM421.642 305.309V303.873H443.464V309.996H423.53V313.549H444.068V314.985H421.793V308.635H441.727V305.309H421.642Z" fill="black"/>
<path d="M488.718 320.05V321.638H459.27V320.05H473.088V316.119H463.348V303.646H484.867V305.158H465.084V309.013H483.961V310.525H465.084V314.607H485.018V316.119H474.825V320.05H488.718ZM462.97 329.802C462.97 326.438 466.934 324.662 473.994 324.662C481.054 324.662 485.018 326.438 485.018 329.802C485.018 333.128 481.054 334.867 473.994 334.867C466.934 334.867 462.97 333.128 462.97 329.802ZM464.707 329.802C464.707 332.108 468.256 333.431 473.994 333.431C479.77 333.431 483.282 332.108 483.282 329.802C483.282 327.496 479.77 326.098 473.994 326.098C468.256 326.098 464.707 327.496 464.707 329.802Z" fill="black"/>
<path d="M508.435 308.635V310.147H491.823V308.635H499.223V303.646H501.035V308.635H508.435ZM493.258 319.975C493.258 315.779 496.127 312.831 500.129 312.793C504.131 312.831 507 315.779 507 319.975C507 324.208 504.131 327.156 500.129 327.156C496.127 327.156 493.258 324.208 493.258 319.975ZM494.844 319.975C494.844 323.112 497.071 325.569 500.129 325.569C503.187 325.569 505.415 323.112 505.415 319.975C505.415 316.838 503.187 314.381 500.129 314.381C497.071 314.381 494.844 316.838 494.844 319.975ZM510.398 333.279V303.495H512.059V316.573H517.496V302.663H519.157V335.018H517.496V318.085H512.059V333.279H510.398Z" fill="black"/>
<path d="M560.711 302.663V335.018H558.975V302.663H560.711ZM533.151 326.854C537.455 324.359 540.626 318.387 540.626 312.188V308.333H533.831V306.821H548.932V308.333H542.363V312.188C542.325 317.971 545.383 323.641 549.687 326.098L548.555 327.459C545.195 325.418 542.627 321.562 541.532 317.027C540.4 321.94 537.682 326.098 534.284 328.215L533.151 326.854ZM546.289 316.119V314.683H552.556V303.571H554.218V333.128H552.556V316.119H546.289Z" fill="black"/>
<path d="M584.974 313.322C584.974 318.652 589.467 324.359 593.733 326.476L592.676 327.837C589.127 326.022 585.541 321.902 584.144 317.291C582.709 322.243 578.934 326.741 575.461 328.668L574.328 327.232C578.481 325.153 583.313 318.954 583.313 313.322V307.653H575.385V306.065H592.752V307.653H584.974V313.322ZM597.66 335.018V302.663H599.396V316.195H605.21V317.782H599.396V335.018H597.66Z" fill="black"/>
<path d="M633.761 302.663V326.476H632.025V302.663H633.761ZM608.014 320.202C612.506 318.274 616.433 313.398 616.47 307.804V304.478H618.207V307.804C618.169 313.171 622.209 317.745 626.739 319.521L625.758 320.957C621.982 319.37 618.66 316.082 617.339 311.886C616.055 316.346 612.733 319.899 608.995 321.562L608.014 320.202ZM613.45 334.187V324.284H615.187V332.599H634.894V334.187H613.45Z" fill="black"/>
<path d="M656.197 305.763V320.202H641.624V305.763H656.197ZM643.285 318.765H654.536V307.275H643.285V318.765ZM645.248 334.187V324.208H646.985V332.599H666.692V334.187H645.248ZM663.219 326.4V302.588H665.031V312.793H670.165V314.381H665.031V326.4H663.219Z" fill="black"/>
<path d="M683.238 305.158C688.297 305.158 691.77 308.106 691.77 312.491C691.77 316.913 688.297 319.861 683.238 319.899C678.179 319.861 674.668 316.913 674.706 312.491C674.668 308.106 678.179 305.158 683.238 305.158ZM672.818 325.947C678.896 325.947 687.277 325.947 694.564 324.813L694.715 326.174C687.202 327.534 679.085 327.534 673.12 327.534L672.818 325.947ZM676.367 312.491C676.367 315.817 679.236 318.312 683.238 318.312C687.202 318.312 690.033 315.817 690.033 312.491C690.033 309.165 687.202 306.746 683.238 306.746C679.236 306.746 676.367 309.165 676.367 312.491ZM696.904 335.018V302.663H698.717V335.018H696.904Z" fill="black"/>
<path d="M729.549 307.728C729.549 313.776 737.251 318.652 741.781 319.521L740.875 321.033C736.722 319.937 730.644 316.346 728.681 311.168C726.717 316.346 720.677 319.899 716.486 321.033L715.58 319.521C720.111 318.614 727.737 313.852 727.737 307.728V305.158H729.549V307.728ZM713.995 330.331V328.819H743.593V330.331H713.995Z" fill="black"/>
<path d="M750.55 325.342C756.93 325.342 761.045 325.115 766.028 324.208L766.255 325.72C761.12 326.665 757.005 326.854 750.55 326.854H748.133V305.763H763.235V307.275H749.87V314.91H762.329V316.422H749.87V325.342H750.55ZM769.577 335.018V302.663H771.314V316.119H777.128V317.707H771.314V335.018H769.577Z" fill="black"/>
<path d="M788.388 304.024C793.183 304.024 796.581 306.859 796.618 311.055C796.581 315.212 793.183 318.009 788.388 318.009C783.631 318.009 780.196 315.212 780.158 311.055C780.196 306.859 783.631 304.024 788.388 304.024ZM781.97 311.055C781.932 314.154 784.688 316.535 788.388 316.497C792.126 316.535 794.882 314.154 794.882 311.055C794.882 307.917 792.126 305.536 788.388 305.536C784.688 305.536 781.932 307.917 781.97 311.055ZM785.141 322.772V321.26H805.679V328.366H786.953V332.977H807.038V334.489H785.217V326.93H803.942V322.772H785.141ZM803.942 319.521V302.663H805.679V319.521H803.942Z" fill="black"/>
<path d="M826.604 303.268C833.589 303.268 837.779 305.271 837.779 308.938C837.779 312.604 833.589 314.607 826.604 314.607C819.544 314.607 815.354 312.604 815.354 308.938C815.354 305.271 819.544 303.268 826.604 303.268ZM811.88 318.765V317.253H841.328V318.765H811.88ZM815.58 323.603V322.167H837.402V328.668H817.392V333.053H838.459V334.489H815.731V327.307H835.665V323.603H815.58ZM817.166 308.938C817.166 311.584 820.828 313.171 826.604 313.171C832.343 313.171 836.005 311.584 836.042 308.938C836.005 306.33 832.343 304.704 826.604 304.704C820.828 304.704 817.166 306.33 817.166 308.938Z" fill="black"/>
<path d="M863.779 309.467C863.741 313.814 867.592 317.48 872.085 318.916L871.179 320.353C867.479 319.03 864.232 316.346 862.948 312.831C861.665 316.724 858.229 319.597 854.416 320.957L853.51 319.597C858.003 318.085 862.042 314.229 862.042 309.467V308.409H854.19V306.821H862.042V302.512H863.779V306.821H871.556V308.409H863.779V309.467ZM856.832 333.431C861.514 332.524 867.517 329.349 867.63 325.191H858.041V323.679H878.956V325.191H869.367C869.404 329.311 875.483 332.524 880.164 333.431L879.409 334.867C875.181 333.96 870.273 331.465 868.46 327.912C866.724 331.465 861.854 333.922 857.587 334.867L856.832 333.431ZM876.54 321.713V302.663H878.352V311.13H883.486V312.642H878.352V321.713H876.54Z" fill="black"/>
<path d="M911.358 306.292V309.543C911.32 313.474 911.32 317.82 910.225 324.132L908.413 323.83C909.584 317.82 909.584 313.398 909.621 309.543V307.804H889.159V306.292H911.358ZM885.912 329.953V328.441H898.144V316.573H899.881V328.441H915.36V329.953H885.912Z" fill="black"/>
<path d="M937.735 324.964C937.698 327.988 939.585 331.314 942.945 332.977C946.23 331.125 948.193 327.496 948.231 324.964V322.696H949.892V324.964C949.892 328.252 952.724 331.73 956.763 333.204L955.857 334.565C952.573 333.317 950.081 330.86 949.024 328.026C948.08 330.709 946.041 333.431 943.021 334.791C939.812 333.506 937.698 330.974 936.792 328.177C935.659 330.823 933.243 333.279 930.109 334.565L929.128 333.204C933.13 331.654 936.036 328.026 936.074 324.964V322.696H937.735V324.964ZM928.222 312.113C928.259 307.691 931.695 304.704 936.527 304.704C941.322 304.704 944.72 307.691 944.758 312.113C944.72 316.535 941.322 319.483 936.527 319.521C931.695 319.483 928.259 316.535 928.222 312.113ZM929.958 312.113C929.958 315.515 932.714 318.009 936.527 318.009C940.303 318.009 943.021 315.515 943.021 312.113C943.021 308.787 940.303 306.254 936.527 306.216C932.714 306.254 929.958 308.787 929.958 312.113ZM952.006 321.26V302.663H953.743V321.26H952.006Z" fill="black"/>
<path d="M974.668 305.007C981.35 305.045 986.22 308.484 986.22 313.625C986.22 318.841 981.35 322.28 974.668 322.243C967.986 322.28 963.078 318.841 963.04 313.625C963.078 308.484 967.986 305.045 974.668 305.007ZM959.944 330.407V328.819H989.543V330.407H959.944ZM964.701 313.625C964.663 317.82 969.005 320.806 974.668 320.806C980.293 320.806 984.597 317.82 984.635 313.625C984.597 309.505 980.293 306.481 974.668 306.519C969.005 306.481 964.663 309.505 964.701 313.625Z" fill="black"/>
<path d="M1008.2 306.065V310.677H1017.34V302.663H1019V335.018H1017.34V321.26H1008.2V326.552H994.007V306.065H1008.2ZM995.744 325.115H1006.54V307.502H995.744V325.115ZM1008.2 319.748H1017.34V312.264H1008.2V319.748Z" fill="black"/>
<path d="M174.38 348.418V366.637H172.644V348.418H174.38ZM148.859 357.792C148.897 353.332 152.333 350.346 157.165 350.308C161.96 350.346 165.357 353.332 165.395 357.792C165.357 362.177 161.96 365.125 157.165 365.125C152.333 365.125 148.897 362.177 148.859 357.792ZM150.596 357.792C150.596 361.118 153.352 363.613 157.165 363.613C160.94 363.613 163.659 361.118 163.659 357.792C163.659 354.428 160.94 351.858 157.165 351.896C153.352 351.858 150.596 354.428 150.596 357.792ZM152.937 380.244V378.732H158.147V370.265H153.239V368.678H174.682V370.265H169.775V378.732H174.984V380.244H152.937ZM159.883 378.732H168.038V370.265H159.883V378.732Z" fill="black"/>
<path d="M195.306 350.762C201.988 350.8 206.858 354.239 206.858 359.38C206.858 364.596 201.988 368.035 195.306 367.998C188.623 368.035 183.715 364.596 183.677 359.38C183.715 354.239 188.623 350.8 195.306 350.762ZM180.582 376.162V374.574H210.18V376.162H180.582ZM185.339 359.38C185.301 363.575 189.643 366.561 195.306 366.561C200.931 366.561 205.235 363.575 205.272 359.38C205.235 355.26 200.931 352.236 195.306 352.274C189.643 352.236 185.301 355.26 185.339 359.38Z" fill="black"/>
<path d="M242.809 374.877V376.464H213.21V374.877H227.028V367.998H217.137V358.624H237.146V352.576H217.061V350.989H238.883V360.136H218.873V366.486H239.638V367.998H228.765V374.877H242.809Z" fill="black"/>
<path d="M271.813 363.991V365.503H261.393V374.801H275.437V376.389H245.839V374.801H259.657V365.503H249.841V351.291H271.436V352.803H251.577V363.991H271.813Z" fill="black"/>
<path d="M291.32 371.021C297.587 371.059 301.551 370.87 306.345 369.963L306.572 371.475C301.664 372.42 297.7 372.647 291.32 372.609H288.979V351.669H303.854V353.181H290.715V371.021H291.32ZM301.664 362.101V360.514H312.008V348.418H313.745V380.773H312.008V362.101H301.664Z" fill="black"/>
<path d="M349.318 364.445V366.032H335.501V370.492H345.619V380.773H343.806V372.004H323.193V370.492H333.764V366.032H319.871V364.445H349.318ZM323.344 355.373C323.344 351.518 327.648 349.25 334.595 349.25C341.503 349.25 345.77 351.518 345.77 355.373C345.77 359.229 341.503 361.459 334.595 361.421C327.648 361.459 323.344 359.229 323.344 355.373ZM325.156 355.373C325.156 358.208 328.894 359.984 334.595 359.984C340.22 359.984 343.995 358.208 344.033 355.373C343.995 352.576 340.22 350.724 334.595 350.762C328.894 350.724 325.156 352.576 325.156 355.373Z" fill="black"/>
<path d="M364.672 349.704V354.92H375.922V349.704H377.583V363.764H362.935V349.704H364.672ZM364.672 362.252H375.922V356.356H364.672V362.252ZM366.257 368.527V367.015H386.342V374.196H368.07V378.732H387.626V380.244H366.333V372.76H384.606V368.527H366.257ZM384.53 365.276V348.418H386.342V355.902H391.477V357.414H386.342V365.276H384.53Z" fill="black"/>
<path d="M420.405 348.418V372.231H418.593V359.229H411.043V357.717H418.593V348.418H420.405ZM394.28 366.259C398.697 364.596 402.775 360.287 402.812 355.298V352.879H394.96V351.367H412.251V352.879H404.549V355.298C404.511 359.758 408.362 363.84 412.855 365.427L411.873 366.864C408.211 365.465 405.002 362.517 403.681 358.888C402.397 362.971 398.962 366.183 395.186 367.695L394.28 366.259ZM400.094 379.942V370.039H401.831V378.354H421.387V379.942H400.094Z" fill="black"/>
<path d="M451.222 348.418V362.177H457.036V363.689H451.222V380.773H449.485V348.418H451.222ZM426.38 355.373V353.861H435.29V348.721H437.102V353.861H445.71V355.373H426.38ZM428.57 365.881C428.532 361.61 431.779 358.624 436.272 358.624C440.726 358.624 443.935 361.61 443.973 365.881C443.935 370.152 440.726 373.1 436.272 373.062C431.779 373.1 428.532 370.152 428.57 365.881ZM430.231 365.881C430.231 369.094 432.76 371.551 436.272 371.551C439.707 371.551 442.274 369.094 442.312 365.881C442.274 362.668 439.707 360.173 436.272 360.136C432.76 360.173 430.231 362.668 430.231 365.881Z" fill="black"/>
<path d="M485.21 358.851V360.362H463.388V349.628H465.125V358.851H485.21ZM459.16 366.864V365.352H488.683V366.864H459.16ZM463.237 379.866V370.568H464.974V378.354H485.436V379.866H463.237Z" fill="black"/>
<path d="M530.162 374.726V376.313H500.563V374.726H514.381V366.032H504.338V351.291H526.235V366.032H516.117V374.726H530.162ZM506 364.596H524.574V352.803H506V364.596Z" fill="black"/>
<path d="M538.93 367.771V372.231H556.901V367.771H558.713V380.244H537.118V367.771H538.93ZM533.192 365.125V363.538H562.639V365.125H533.192ZM535.079 359.304C539.836 358.548 547.009 355.222 547.009 350.611V348.796H548.822V350.611C548.822 355.071 556.108 358.586 560.827 359.304L560.072 360.665C555.655 359.947 549.879 357.301 547.953 353.332C546.028 357.339 540.214 359.947 535.759 360.665L535.079 359.304ZM538.93 378.732H556.901V373.743H538.93V378.732Z" fill="black"/>
<path d="M580.544 349.023C587.528 349.023 591.719 351.026 591.719 354.693C591.719 358.359 587.528 360.362 580.544 360.362C573.484 360.362 569.294 358.359 569.294 354.693C569.294 351.026 573.484 349.023 580.544 349.023ZM565.82 364.52V363.008H595.268V364.52H565.82ZM569.52 369.358V367.922H591.341V374.423H571.332V378.808H592.399V380.244H569.671V373.062H589.605V369.358H569.52ZM571.106 354.693C571.106 357.339 574.768 358.926 580.544 358.926C586.283 358.926 589.945 357.339 589.982 354.693C589.945 352.085 586.283 350.46 580.544 350.46C574.768 350.46 571.106 352.085 571.106 354.693Z" fill="black"/>
<path d="M636.822 374.801V376.313H607.224V374.801H621.041V367.166H610.999V350.837H612.735V357.188H631.235V350.837H632.971V367.166H622.778V374.801H636.822ZM612.735 365.654H631.235V358.699H612.735V365.654Z" fill="black"/>
<path d="M648.384 351.064C651.405 351.064 653.821 352.916 655.142 356.054H664.618V348.418H666.279V380.773H664.618V367.922H655.293C654.01 371.248 651.518 373.214 648.384 373.214C643.741 373.214 640.494 368.905 640.532 362.177C640.494 355.411 643.741 351.064 648.384 351.064ZM642.193 362.177C642.193 367.695 644.722 371.702 648.384 371.702C652.046 371.702 654.651 367.695 654.651 362.177C654.651 356.583 652.046 352.614 648.384 352.576C644.722 352.614 642.193 356.583 642.193 362.177ZM655.671 357.565C656.048 358.926 656.237 360.476 656.237 362.177C656.237 363.726 656.086 365.125 655.784 366.41H664.618V357.565H655.671Z" fill="black"/>
<path d="M698.455 364.293V365.881H676.483V351.593H698.077V353.105H678.219V364.293H698.455ZM672.481 376.011V374.423H702.079V376.011H672.481Z" fill="black"/>
<path d="M731.537 348.418V380.773H729.8V348.418H731.537ZM706.997 353.105V351.593H721.872V362.479H708.885V371.173H709.715C714.925 371.21 719.909 370.984 726.176 369.963L726.327 371.551C719.984 372.496 715.038 372.76 709.715 372.76H707.148V360.967H720.06V353.105H706.997Z" fill="black"/>
<path d="M752.084 350.913C752.084 353.483 751.48 355.902 750.385 358.095H756.917V349.174H758.653V366.788H756.917V359.682H749.479C747.252 363.046 743.778 365.805 739.248 367.771L738.342 366.41C745.326 363.424 749.819 358.51 750.31 352.425H739.475V350.913H752.084ZM740.003 379.337C743.929 377.863 746.912 374.196 746.874 371.097V368.451H748.611V371.097C748.573 374.196 750.385 377.447 753.708 379.148C757.068 377.258 758.955 373.629 758.955 371.097V368.451H760.692V371.097C760.654 374.461 763.523 377.938 767.563 379.337L766.657 380.698C763.372 379.488 760.881 376.993 759.786 374.159C758.88 376.842 756.879 379.601 753.821 381C750.574 379.677 748.498 377.069 747.629 374.234C746.534 376.956 744.043 379.45 740.909 380.698L740.003 379.337ZM763.335 367.317V348.418H764.996V367.317H763.335Z" fill="black"/>
<path d="M776.105 367.771V372.231H794.076V367.771H795.888V380.244H774.293V367.771H776.105ZM770.366 365.125V363.538H799.814V365.125H770.366ZM772.254 359.304C777.011 358.548 784.184 355.222 784.184 350.611V348.796H785.996V350.611C785.996 355.071 793.283 358.586 798.002 359.304L797.247 360.665C792.83 359.947 787.053 357.301 785.128 353.332C783.203 357.339 777.389 359.947 772.934 360.665L772.254 359.304ZM776.105 378.732H794.076V373.743H776.105V378.732Z" fill="black"/>
<path d="M829.271 348.418V380.773H827.535V348.418H829.271ZM805.336 372.155V351.669H807.072V370.568H807.828C812.924 370.53 817.983 370.152 823.608 368.98L823.835 370.568C818.096 371.702 813.113 372.155 807.828 372.155H805.336Z" fill="black"/>
<path d="M860.314 348.418V361.723H866.128V363.235H860.314V380.773H858.578V348.418H860.314ZM837.134 372.458V351.669H852.16V353.181H838.87V370.946H839.55C845.93 370.946 850.045 370.681 854.953 369.736L855.255 371.324C850.121 372.269 846.006 372.496 839.55 372.458H837.134Z" fill="black"/>
<path d="M871.197 378.127C870.366 378.165 869.649 377.447 869.687 376.615C869.649 375.708 870.366 375.028 871.197 375.028C872.065 375.028 872.783 375.708 872.783 376.615C872.783 377.447 872.065 378.165 871.197 378.127Z" fill="black"/>
<path d="M223.232 58.451H205.09V0H223.891C240.961 0.0825569 251.021 10.9802 250.938 29.2255C251.021 47.3883 240.961 58.451 223.232 58.451ZM212.347 52.0115H222.737C237.003 52.0115 243.929 43.3429 244.012 29.2255C243.929 15.0255 237.003 6.52208 223.561 6.43952H212.347V52.0115Z" fill="black"/>
<path d="M261.621 58.451V0H281.412C295.1 0.0825569 301.285 7.67789 301.367 17.9976C301.285 25.7581 297.821 31.8674 290.4 34.4267L303.676 58.451H295.1L282.978 35.8302H268.878V58.451H261.621ZM268.878 29.2255H281.247C290.482 29.2255 294.111 25.0151 294.111 17.9976C294.111 11.0628 290.482 6.52208 281.082 6.43952H268.878V29.2255Z" fill="black"/>
<path d="M314.429 58.451H306.843L328.118 0H335.704L357.144 58.451H349.558L343.785 42.1046H320.201L314.429 58.451ZM322.51 35.665H341.476L332.241 9.4116H331.746L322.51 35.665Z" fill="black"/>
<path d="M371.23 58.451L355.397 0H362.654L374.858 47.3883H375.353L387.722 0H395.803L408.173 47.3883H408.667L420.872 0H428.293L412.296 58.451H404.874L392.01 12.2186H391.68L378.816 58.451H371.23Z" fill="black"/>
<path d="M459.3 58.451H451.713L472.988 0H480.575L502.015 58.451H494.428L488.656 42.1046H465.072L459.3 58.451ZM467.381 35.665H486.347L477.111 9.4116H476.617L467.381 35.665Z" fill="black"/>
<path d="M548.728 58.451H530.586V0H549.387C566.457 0.0825569 576.517 10.9802 576.435 29.2255C576.517 47.3883 566.457 58.451 548.728 58.451ZM537.843 52.0115H548.233C562.499 52.0115 569.425 43.3429 569.508 29.2255C569.425 15.0255 562.499 6.52208 549.057 6.43952H537.843V52.0115Z" fill="black"/>
<path d="M587.117 58.451V0H606.908C620.596 0.0825569 626.781 7.67789 626.863 17.9976C626.781 25.7581 623.318 31.8674 615.896 34.4267L629.172 58.451H620.596L608.475 35.8302H594.374V58.451H587.117ZM594.374 29.2255H606.743C615.979 29.2255 619.607 25.0151 619.607 17.9976C619.607 11.0628 615.979 6.52208 606.578 6.43952H594.374V29.2255Z" fill="black"/>
<path d="M637.286 58.451V0H672.58V6.43952H644.543V26.0883H670.766V32.3627H644.543V52.0115H673.075V58.451H637.286Z" fill="black"/>
<path d="M686.793 58.451H679.206L700.481 0H708.068L729.508 58.451H721.921L716.149 42.1046H692.565L686.793 58.451ZM694.874 35.665H713.84L704.604 9.4116H704.11L694.874 35.665Z" fill="black"/>
<path d="M737.464 0H746.205L765.83 48.0487H766.49L786.116 0H794.857V58.451H788.095V14.3651H787.435L769.294 58.451H762.862L744.885 14.3651H744.226V58.451H737.464V0Z" fill="black"/>
<path d="M811.808 58.9464C808.922 58.9464 806.53 56.5522 806.53 53.6627C806.53 50.8557 808.922 48.5441 811.808 48.5441C814.611 48.5441 816.92 50.8557 816.92 53.6627C816.92 56.5522 814.611 58.9464 811.808 58.9464Z" fill="black"/>
</svg>
